<?xml version="1.0" encoding="UTF-8"?>
<!DOCTYPE svg  PUBLIC '-//W3C//DTD SVG 1.0//EN'  'http://www.w3.org/TR/2001/REC-SVG-20010904/DTD/svg10.dtd'>
<svg width="192" height="78.112" fill="none" fill-rule="evenodd" stroke-linecap="round" stroke-linejoin="round" stroke-width="8.4747" version="1.0" viewBox="-3206 -1300 6356 2586" xmlns="http://www.w3.org/2000/svg">
<metadata>
</metadata>
<g transform="matrix(1 0 0 -1 0 -14)">
<path d="m-46 108 10 4 3 9-3 9-10 4z" fill="#000" fill-rule="nonzero"/>
<path d="m-1978 203v-13l1932-82v26l-1932 82v-13z" fill="#000" fill-rule="nonzero"/>
<path d="m-1978 216-10-4-3-9 3-9 10-4z" fill="#000" fill-rule="nonzero"/>
<path d="m-46 115 5 2 1 4-1 4-5 2z" fill="#000" fill-rule="nonzero"/>
<path d="m-1978 203v-6l1932-82v12l-1932 82v-6z" fill="#000" fill-rule="nonzero"/>
<path d="m-1978 209-4-2-2-4 2-4 4-2z" fill="#000" fill-rule="nonzero"/>
<path d="m-2147 386h-127v-28l107-117v-68l17-4" stroke="#000"/>
<path d="m-2257 386v82h114v-82h-114" stroke="#000"/>
<path d="m-2236 595v-127h72v127h-72" stroke="#000"/>
<path d="m-2264 595v38h124v-38h-124" stroke="#000"/>
<path d="m-2250 881v-248h100v248h-100" stroke="#000"/>
<path d="m-2085 386h-62v-207" stroke="#000"/>
<path d="m-2081 406v28l13 31v113h17l21 705v3l21-708h13v-117l14-31v-27" stroke="#000"/>
<path d="m-1982 334v69h-99v-158" stroke="#000"/>
<path d="m1794-925-9 23-5 14-2 7-1 2-12-17-9-22-5-19-2-8" stroke="#000"/>
<path d="m1825-919-13 25-6 14-3 4v1h10l10-2 22-8 9-5 7-5 5-3 2-1" stroke="#000"/>
<path d="m1644-981-9 23-5 14-2 7-1 2-12-17-9-22-5-19-2-8" stroke="#000"/>
<path d="m1687-965-9 23-5 14-2 7-1 2 10-1 10-3 10-5 10-6 9-6 7-5 4-4 2-1" stroke="#000"/>
<path d="m1911-862-9 10-14 14-4 5-7 7-5-20 1-24 2-20 2-8" stroke="#000"/>
<path d="m1944-831-9 10-8 8-5 6-10 10-1 2 9 3h11 12l11-2 10-2 8-2 6-1 2-1" stroke="#000"/>
<path d="m1699-1070-8 12-3 6-3 7-1 6-2 5-1 6-1 5 1 2 21 8h1l6-10 4-10 3-7 2-7 2-14v-1l-21-8" stroke="#000"/>
<path d="m1835-1022-67-23-19-7-5-1h-6l-5 1-5 2-4 2-4 3-3 4-2 5-2 10 3 10 6 8 9 5 87 31 1-1 10 2 5-1 5-2 4-2 4-4 3-4 2-5 1-10-2-9-6-8-9-5-1-1" stroke="#000"/>
<path d="m1813-1011h-3l-3 1-2 1-2 2v3l1 3 1 2 3 2h3l3-1 2-1 1-3v-3-3l-2-2-2-1" stroke="#000"/>
<path d="m1758-1030 3 1 1 2 1 3v3l-2 3-2 1-3 1h-3l-2-2-1-2-1-3v-3l1-2 2-1 3-1h3" stroke="#000"/>
<path d="m1756-992-15 41 130 52 27-34-142-59" stroke="#000"/>
<path d="m1607-1046-16 41 150 56 15-42-149-55" stroke="#000"/>
<path d="m2002-925-6 4-5 4-6 5-5 5-4 5-3 4-4 5-3 4 1 2 16 15 2 1 4-3 5-4 8-8 4-5 5-6 4-6 3-6 1-1-17-15" stroke="#000"/>
<path d="m1969-944-61-46-16-12-5-3-10-2h-5l-5 1-5 2-4 3-4 4-4 10v10l3 9 7 7v1l77 58 1-1 5 3 5 2 5 1h5l5-2 4-1 4-3 4-4 4-10 1-10-4-9-7-8" stroke="#000"/>
<path d="m2085-797-29-65-8-19-3-5-3-3-4-3-5-3-10-2-10 2-8 6-6 8-1 10 2 10v1l37 84h1l3 5 3 3 8 6 10 2 10-2 8-6 5-8 2-10-2-10v-1" stroke="#000"/>
<path d="m1947-944-2-2h-3l-2 1-3 2-2 2v3l1 2 2 3 2 2h3l3-1 4-4v-3l-1-3-2-2" stroke="#000"/>
<path d="m2061-806-1-3-3-1-2-1-3 1-3 2-1 2-1 3 1 2 1 3 3 1 2 1 6-2 1-3 1-2-1-3" stroke="#000"/>
<path d="m2038-859 1 3-1 3-1 2-6 2-2-1-3-1-1-2-1-3 1-3 1-2 3-2h3 2l3 2 1 2" stroke="#000"/>
<path d="m1897-932-28 33 113 101 30-32-115-102" stroke="#000"/>
<path d="m1970-778-5-15-7-14-7-13-8-13-9-11-11-11-11-10-11-9-13-9-13-7-14-6-14-5-15-5-16-3-32-2-30 2-15 3-14 4-14 5-13 6-13 7-12 8-11 8-11 10-10 10-10 11-8 11-8 13-7 13-6 13" stroke="#000"/>
<path d="m1911-788-9-19-12-17-14-16-16-13-18-10-20-8-21-5-22-2-22 2-21 5-19 8-18 11-16 13-14 16-11 17-9 19" stroke="#000"/>
<path d="m2034-696-25-132-28 32 5 35" stroke="#000"/>
<path d="m-2502-965 14 20 8 13 5 6 1 2-10 1-11-1-12-2-11-4-10-3-8-4-6-2-2-1" stroke="#000"/>
<path d="m-2464-991 14 20 8 13 5 6 1 2 7-19 3-23v-19-8" stroke="#000"/>
<path d="m-2231-1137 12 21 8 13 4 6 1 2-10 1-11-2-11-3-11-4-10-4-9-4-5-3-2-1" stroke="#000"/>
<path d="m-2203-1161 26 39 1 2 8-19 4-22v-19-8" stroke="#000"/>
<path d="m-2370-1055 14 20 8 13 5 6 1 2-10 1-11-1-12-2-11-4-10-3-8-4-6-2-2-1" stroke="#000"/>
<path d="m-2332-1081 14 20 8 13 5 6 1 2 7-19 3-23v-19-8" stroke="#000"/>
<path d="m-2672-980 4 14 3 6 4 7 3 5 3 4 3 5 4 4h2l20-11 1-1-2-5-3-5-2-6-3-5-8-12-4-5-6-6-19 11" stroke="#000"/>
<path d="m-2549-1055-61 37-17 11-7 7-5 10v10l3 10 3 4 4 3 5 3 5 1 4 1 10-2 5-2 79-49-1-1 8-7 4-9 1-10-4-9-3-4-8-6-5-1-4-1h-5l-10 4h-1" stroke="#000"/>
<path d="m-2555-1031-2 2-1 3v2l1 3 4 4h3l3-1 2-2 1-3v-3l-1-2-2-2-3-2h-2l-3 1" stroke="#000"/>
<path d="m-2604-1001 3-1h2l3 2 2 2 1 3v2l-1 3-2 2-3 1h-3l-2-1-2-2-1-3v-3l1-3 2-2" stroke="#000"/>
<path d="m-2574-974 24 37 133-90-25-36-132 89" stroke="#000"/>
<path d="m-2400-1152 2 7 2 6 3 7 4 6 3 5 4 5 3 4 4 5h2l19-11 1-1-4-10-2-6-3-5-8-12-5-6-5-5h-1l-19 11" stroke="#000"/>
<path d="m-2428-1132-60 38-17 11-7 7-5 10v10l3 10 3 4 4 3 5 3 5 1 4 1 10-2 5-2h1l77-50v-1l7-7 5-9v-10l-4-10-3-4-4-3-4-2-5-2h-5-5l-10 4" stroke="#000"/>
<path d="m-2282-1237-59 39-17 11-7 8-4 9-1 11 4 9 3 4 4 3 5 3 5 1h4 5l10-4 77-51v-1l7-7 4-9v-10l-4-10-3-4-4-3-4-2-5-1-4-1-5 1-10 4h-1" stroke="#000"/>
<path d="m-2433-1106-2 2-1 2v3l1 3 2 2 2 1h3l3-1 2-2 1-3v-2l-1-3-2-2-3-1h-2l-3 1" stroke="#000"/>
<path d="m-2482-1076 3-1h2l3 1 2 2 1 3v3l-1 2-2 2-3 1h-3l-2-1-2-2-1-3v-2l1-3 2-2" stroke="#000"/>
<path d="m-2287-1213-2 2-2 3v3l6 6h3l3-2 2-2 1-2v-3l-1-3-2-2-3-1h-2l-3 1" stroke="#000"/>
<path d="m-2335-1181 3-1h2l3 1 2 2 1 3v3l-1 2-2 2-3 1h-3l-2-1-2-2-2-3v-2l2-3 2-2" stroke="#000"/>
<path d="m-2310-1153 22 38 139-79-22-39-139 80" stroke="#000"/>
<path d="m-2442-1063 25 36 132-89-25-37-132 90" stroke="#000"/>
<path d="m-1965-1192v25 15 7 2l-9-4-8-7-9-9-7-9-7-8-5-8-3-5-1-2" stroke="#000"/>
<path d="m-1919-1192v25 15 7 2l9-4 8-7 8-8 7-9 6-8 5-7 3-5 1-2" stroke="#000"/>
<path d="m-2079-1192v25 15 7 2l9-4 8-7 8-8 7-9 6-8 5-7 3-5 1-2" stroke="#000"/>
<path d="m-1646-1192v25 15 7 2l-9-4-8-7-9-9-7-9-7-8-5-8-3-5-1-2" stroke="#000"/>
<path d="m-1600-1192v25 15 7 2l9-4 8-7 8-8 8-9 6-8 5-7 3-5 1-2" stroke="#000"/>
<path d="m-1806-1192v25 15 7 2l-9-4-8-7-9-9-7-9-7-8-5-8-3-5-1-2" stroke="#000"/>
<path d="m-1760-1192v25 15 7 2l9-4 8-7 8-8 8-9 6-8 5-7 3-5 1-2" stroke="#000"/>
<path d="m-2105-1291-1 7-2 7-1 7v7 6l2 12 1 5 1 1h23 1l1-5 2-12v-6-7l-1-7-2-7-1-7v-1h-23" stroke="#000"/>
<path d="m-2145-1295-67 24-19 8-9 5-6 9-2 9 1 11 2 5 3 4 4 3 5 2 4 2 5 1 10-2h1l86-32v-1l9-5 6-8 3-10-2-10-2-5-3-4-4-3-4-2-5-2-5-1-10 2h-1" stroke="#000"/>
<path d="m-1959-1294h-72-20l-10 2-9 6-6 8-2 10 2 10 6 8 8 6 10 2h1 92v-1l10-2 8-6 6-8 2-10-2-10-6-8-8-5-10-2" stroke="#000"/>
<path d="m-2156-1272-3 1-1 2-1 3 2 6 2 1 3 1 6-2 1-2 1-3-2-6-2-1-3-1-3 1" stroke="#000"/>
<path d="m-2210-1253h3l3 1 2 1 2 6-1 3-1 2-3 1h-3-3l-2-2-1-2-1-3 1-3 1-2 3-2" stroke="#000"/>
<path d="m-1977-1277-3 1-2 1-2 2-1 3 1 3 2 3 2 1 3 1 3-1 2-1 2-6-1-3-1-2-2-1-3-1" stroke="#000"/>
<path d="m-2035-1277 3 1 2 1 1 2 1 3-2 6-2 1-3 1-3-1-2-1-2-6 1-3 1-2 2-1 3-1" stroke="#000"/>
<path d="m-2023-1240v44h160v-44h-160" stroke="#000"/>
<path d="m-2172-1228 24 37 125-5v-44l-149 12" stroke="#000"/>
<path d="m-1785-1294-2 7-2 14v7 6l1 6v5l1 6 2 1h22 2l1-6v-5l1-6v-6-7l-3-21-1-1h-22" stroke="#000"/>
<path d="m-1816-1294h-71-20l-11 2-8 6-6 8-2 10 2 10 5 8 9 6 10 2h92l1-1 10-2 8-6 6-8 2-10-2-10-6-8-8-5-10-2h-1" stroke="#000"/>
<path d="m-1640-1294h-71-20l-11 2-8 6-6 8-2 10 2 10 5 8 9 6 10 2h92l1-1 10-2 8-6 6-8 2-10-2-10-6-8-8-5-10-2h-1" stroke="#000"/>
<path d="m-1834-1277-3 1-2 1-1 2-1 3 2 6 2 1 3 1 3-1 2-1 2-6-1-3-1-2-2-1-3-1" stroke="#000"/>
<path d="m-1892-1277 6 2 1 2 1 3-2 6-6 2-3-1-2-1-2-6 1-3 1-2 2-1 3-1" stroke="#000"/>
<path d="m-1658-1277-3 1-2 1-1 2-1 3 2 6 2 1 3 1 6-2 2-6-1-3-1-2-6-2" stroke="#000"/>
<path d="m-1715-1277 3 1 2 1 1 2 1 3-2 6-2 1-3 1-3-1-2-1-2-3-1-3 1-3 2-2 2-1 3-1" stroke="#000"/>
<path d="m-1703-1240v44h159v-44h-159" stroke="#000"/>
<path d="m-1863-1240v44h160v-44h-160" stroke="#000"/>
<path d="m-1326-1192v25 15 7 2l-9-4-8-7-9-9-7-9-7-8-5-8-3-5-1-2" stroke="#000"/>
<path d="m-1280-1192v25 15 7 2l9-4 8-7 8-8 7-9 6-8 5-7 3-5 1-2" stroke="#000"/>
<path d="m-1486-1192v25 15 7 2l-9-4-8-7-9-9-7-9-7-8-5-8-3-5-1-2" stroke="#000"/>
<path d="m-1440-1192v25 15 7 2l9-4 8-7 8-8 8-9 6-8 5-7 3-5 1-2" stroke="#000"/>
<path d="m-1006-1192v25 15 7 2l-9-4-8-7-9-9-7-9-7-8-5-8-3-5-1-2" stroke="#000"/>
<path d="m-960-1192v25 15 7 2l9-4 8-7 8-8 7-9 6-8 5-7 3-5 1-2" stroke="#000"/>
<path d="m-1166-1192v25 15 7 2l-9-4-8-7-9-9-7-9-7-8-5-8-3-5-1-2" stroke="#000"/>
<path d="m-1120-1192v25 15 7 2l9-4 8-7 8-8 7-9 6-8 5-7 3-5 1-2" stroke="#000"/>
<path d="m-1466-1294-3 21v7 6l1 6v5l1 6 2 1h22 2l1-6v-5l1-6v-6-7l-2-14-2-7v-1h-22-1" stroke="#000"/>
<path d="m-1496-1294h-72-20l-10 2-9 6-6 8-2 10 2 10 6 8 8 6 10 2h1 92v-1l10-2 9-6 5-8 2-10-2-10-5-8-9-5-10-2" stroke="#000"/>
<path d="m-1320-1294h-71-21l-10 2-9 6-6 8-2 10 2 10 6 8 8 6 11 2h92v-1l11-2 8-6 6-8 2-10-2-10-6-8-8-5-11-2" stroke="#000"/>
<path d="m-1514-1277-3 1-2 1-2 2-1 3 1 3 2 3 2 1 3 1 3-1 2-1 2-6-1-3-1-2-2-1-3-1" stroke="#000"/>
<path d="m-1572-1277 3 1 2 1 1 2 1 3-2 6-2 1-3 1-3-1-2-1-2-6 1-3 1-2 2-1 3-1" stroke="#000"/>
<path d="m-1338-1277-3 1-2 1-1 2-1 3 2 6 2 1 3 1 3-1 2-1 2-6-1-3-1-2-2-1-3-1" stroke="#000"/>
<path d="m-1396-1277 6 2 1 2 1 3-2 6-6 2-3-1-2-1-2-6 1-3 1-2 2-1 3-1" stroke="#000"/>
<path d="m-1384-1240v44h160v-44h-160" stroke="#000"/>
<path d="m-1544-1240v44h160v-44h-160" stroke="#000"/>
<path d="m-1146-1294-3 21v7 6 6l1 5 1 6 1 1h23 1l1-6 1-5 1-6v-6-7l-1-7-2-7-1-7v-1h-23" stroke="#000"/>
<path d="m-1176-1294h-72-20l-10 2-9 6-6 8-2 10 2 10 6 8 8 6 10 2h1 92v-1l10-2 8-6 6-8 2-10-2-10-6-8-8-5-10-2" stroke="#000"/>
<path d="m-1e3 -1294h-72-20l-10 2-9 6-6 8-2 10 2 10 6 8 8 6 10 2h1 92v-1l10-2 9-6 5-8 2-10-2-10-5-8-9-5-10-2" stroke="#000"/>
<path d="m-1195-1277-3 1-2 1-1 2-1 3 2 6 2 1 3 1 6-2 2-6-1-3-1-2-6-2" stroke="#000"/>
<path d="m-1252-1277 3 1 2 1 1 2 1 3-2 6-2 1-3 1-3-1-2-1-2-6 1-3 1-2 2-1 3-1" stroke="#000"/>
<path d="m-1018-1277-3 1-2 1-2 2-1 3 1 3 2 3 2 1 3 1 3-1 2-1 2-6-1-3-1-2-2-1-3-1" stroke="#000"/>
<path d="m-1076-1277 3 1 2 1 1 2 1 3-2 6-2 1-3 1-3-1-2-1-2-6 1-3 1-2 2-1 3-1" stroke="#000"/>
<path d="m-1064-1240v44h160v-44h-160" stroke="#000"/>
<path d="m-1224-1240v44h160v-44h-160" stroke="#000"/>
<path d="m-687-1192v25 15 7 2l-9-4-8-7-9-9-7-9-7-8-5-8-3-5-1-2" stroke="#000"/>
<path d="m-641-1192v25 15 7 2l9-4 8-7 8-8 8-9 6-8 5-7 3-5 1-2" stroke="#000"/>
<path d="m-847-1192v25 15 7 2l-8-4-9-7-16-18-6-8-5-8-4-5-1-2" stroke="#000"/>
<path d="m-801-1192v25 15 7 2l9-4 8-7 8-8 8-9 6-8 5-7 3-5 1-2" stroke="#000"/>
<path d="m-367-1192v25 15 7 2l-9-4-8-7-9-9-7-9-7-8-5-8-3-5-1-2" stroke="#000"/>
<path d="m-321-1192v25 15 7 2l9-4 8-7 8-8 8-9 6-8 5-7 3-5 1-2" stroke="#000"/>
<path d="m-527-1192v25 15 7 2l-9-4-8-7-9-9-7-9-7-8-5-8-3-5-1-2" stroke="#000"/>
<path d="m-481-1192v25 15 7 2l9-4 8-7 8-8 8-9 6-8 5-7 3-5 1-2" stroke="#000"/>
<path d="m-826-1294-2 7-2 14v7 6l1 6 1 5 1 6 1 1h22 2l1-6 1-5v-6-6-7l-3-21-1-1h-22" stroke="#000"/>
<path d="m-857-1294h-71-20l-11 2-8 6-6 8-2 10 2 10 5 8 9 6 10 2h92l1-1 10-2 8-6 6-8 2-10-2-10-6-8-8-5-10-2h-1" stroke="#000"/>
<path d="m-681-1294h-71-20l-11 2-8 6-6 8-2 10 2 10 6 8 8 6 10 2h92l1-1 10-2 8-6 6-8 2-10-2-10-6-8-8-5-10-2h-1" stroke="#000"/>
<path d="m-875-1277-3 1-2 1-1 2-1 3 2 6 2 1 3 1 3-1 2-1 2-6-1-3-1-2-2-1-3-1" stroke="#000"/>
<path d="m-932-1277 3 1 2 1 1 2 1 3-2 6-2 1-3 1-3-1-2-1-2-3-1-3 1-3 2-2 2-1 3-1" stroke="#000"/>
<path d="m-699-1277-3 1-2 1-1 2-1 3 2 6 2 1 3 1 6-2 2-6-1-3-1-2-6-2" stroke="#000"/>
<path d="m-756-1277 3 1 2 1 1 2 1 3-2 6-2 1-3 1-3-1-2-1-2-3-1-3 1-3 2-2 2-1 3-1" stroke="#000"/>
<path d="m-744-1240v44h160v-44h-160" stroke="#000"/>
<path d="m-904-1240v44h160v-44h-160" stroke="#000"/>
<path d="m-507-1294-3 21v7 6l1 6v5l1 6 2 1h22 2l1-6v-5l1-6v-6-7l-2-14-2-7v-1h-22-1" stroke="#000"/>
<path d="m-537-1294h-71-21l-10 2-9 6-6 8-2 10 2 10 6 8 8 6 10 2h1 92v-1l10-2 9-6 5-8 2-10-2-10-5-8-9-5-10-2" stroke="#000"/>
<path d="m-361-1294h-71-20l-11 2-8 6-6 8-2 10 2 10 5 8 9 6 10 2h92v-1l11-2 8-6 6-8 2-10-2-10-6-8-8-5-11-2" stroke="#000"/>
<path d="m-555-1277-3 1-2 1-1 2-1 3 2 6 2 1 3 1 3-1 2-1 2-6-1-3-1-2-2-1-3-1" stroke="#000"/>
<path d="m-613-1277 6 2 1 2 1 3-2 6-6 2-3-1-2-1-2-6 1-3 1-2 2-1 3-1" stroke="#000"/>
<path d="m-379-1277-3 1-2 1-1 2-1 3 2 6 2 1 3 1 3-1 2-1 2-6-1-3-1-2-2-1-3-1" stroke="#000"/>
<path d="m-437-1277 6 2 1 2 1 3-2 6-6 2-3-1-2-1-2-6 1-3 1-2 2-1 3-1" stroke="#000"/>
<path d="m-425-1240v44h160v-44h-160" stroke="#000"/>
<path d="m-585-1240v44h160v-44h-160" stroke="#000"/>
<path d="m-47-1192v25 15 7 2l-9-4-8-7-9-9-7-9-7-8-5-8-3-5-1-2" stroke="#000"/>
<path d="m-1-1192v25 15 7 2l9-4 8-7 8-8 7-9 6-8 5-7 3-5 1-2" stroke="#000"/>
<path d="m-207-1192v25 15 7 2l-9-4-8-7-9-9-7-9-7-8-5-8-3-5-1-2" stroke="#000"/>
<path d="m-161-1192v25 15 7 2l9-4 8-7 8-8 7-9 6-8 5-7 3-5 1-2" stroke="#000"/>
<path d="m272-1192v25 15 7 2l-8-4-9-7-16-18-6-8-5-8-4-5-1-2" stroke="#000"/>
<path d="m318-1192v25 15 7 2l9-4 8-7 8-8 8-9 6-8 5-7 3-5 1-2" stroke="#000"/>
<path d="m113-1192v25 15 7 2l-9-4-8-7-9-9-7-9-7-8-5-8-3-5-1-2" stroke="#000"/>
<path d="m158-1192v25 15 7 2l9-4 8-7 8-8 8-9 6-8 5-7 3-5 1-2" stroke="#000"/>
<path d="m-187-1294-3 21v7 6 6l1 5 1 6 2 1h22 1l1-6 1-5 1-6v-6-7l-2-14-2-7v-1h-22-1" stroke="#000"/>
<path d="m-217-1294h-72-20l-10 2-9 6-6 8-2 10 2 10 6 8 8 6 10 2h1 92v-1l10-2 8-6 6-8 2-10-2-10-6-8-8-5-10-2" stroke="#000"/>
<path d="m-41-1294h-72-20l-10 2-9 6-6 8-2 10 2 10 6 8 8 6 10 2h1 92v-1l10-2 9-6 5-8 2-10-2-10-5-8-9-5-10-2" stroke="#000"/>
<path d="m-236-1277-3 1-2 1-1 2-1 3 2 6 2 1 3 1 6-2 2-6-1-3-1-2-6-2" stroke="#000"/>
<path d="m-293-1277 3 1 2 1 1 2 1 3-2 6-2 1-3 1-3-1-2-1-2-6 1-3 1-2 2-1 3-1" stroke="#000"/>
<path d="m-59-1277-3 1-2 1-2 2-1 3 1 3 2 3 2 1 3 1 3-1 2-1 2-6-1-3-1-2-2-1-3-1" stroke="#000"/>
<path d="m-117-1277 3 1 2 1 1 2 1 3-2 6-2 1-3 1-3-1-2-1-2-6 1-3 1-2 2-1 3-1" stroke="#000"/>
<path d="m-105-1240v44h160v-44h-160" stroke="#000"/>
<path d="m-265-1240v44h160v-44h-160" stroke="#000"/>
<path d="m133-1294-1 7-2 7-1 7v7 6l1 6 1 5 1 6 1 1h23 1l1-6 1-5v-6-6-7l-3-21v-1h-23" stroke="#000"/>
<path d="m102-1294h-71-20l-11 2-8 6-6 8-2 10 2 10 5 8 9 6 10 2h92l1-1 10-2 8-6 6-8 2-10-2-10-6-8-8-5-10-2h-1" stroke="#000"/>
<path d="m278-1294h-71-20l-11 2-8 6-6 8-2 10 2 10 6 8 8 6 10 2h92l1-1 10-2 8-6 6-8 2-10-2-10-6-8-8-5-10-2h-1" stroke="#000"/>
<path d="m84-1277-3 1-2 1-1 2-1 3 2 6 2 1 3 1 6-2 2-6-1-3-1-2-6-2" stroke="#000"/>
<path d="m27-1277 3 1 2 1 1 2 1 3-2 6-2 1-3 1-3-1-2-1-2-3-1-3 1-3 2-2 2-1 3-1" stroke="#000"/>
<path d="m260-1277-3 1-2 1-1 2-1 3 2 6 2 1 3 1 6-2 2-6-1-3-1-2-6-2" stroke="#000"/>
<path d="m203-1277 3 1 2 1 1 2 1 3-2 6-2 1-3 1-3-1-2-1-2-6 1-3 1-2 2-1 3-1" stroke="#000"/>
<path d="m215-1240v44h160v-44h-160" stroke="#000"/>
<path d="m55-1240v44h160v-44h-160" stroke="#000"/>
<path d="m592-1192v25 15 7 2l-9-4-8-7-9-9-7-9-7-8-5-8-3-5-1-2" stroke="#000"/>
<path d="m638-1192v25 15 7 2l9-4 8-7 8-8 8-9 6-8 5-7 3-5 1-2" stroke="#000"/>
<path d="m432-1192v25 15 7 2l-9-4-8-7-9-9-7-9-7-8-5-8-3-5-1-2" stroke="#000"/>
<path d="m478-1192v25 15 7 2l9-4 8-7 8-8 8-9 6-8 5-7 3-5 1-2" stroke="#000"/>
<path d="m912-1192v25 15 7 2l-9-4-8-7-9-9-7-9-7-8-5-8-3-5-1-2" stroke="#000"/>
<path d="m958-1192v25 15 7 2l9-4 8-7 8-8 7-9 6-8 5-7 3-5 1-2" stroke="#000"/>
<path d="m752-1192v25 15 7 2l-9-4-8-7-9-9-7-9-7-8-5-8-3-5-1-2" stroke="#000"/>
<path d="m798-1192v25 15 7 2l9-4 8-7 8-8 7-9 6-8 5-7 3-5 1-2" stroke="#000"/>
<path d="m453-1294-2 7-2 14v7 6l1 6v5l1 6 2 1h22 2l1-6v-5l1-6v-6-7l-3-21-1-1h-22" stroke="#000"/>
<path d="m422-1294h-71-21l-10 2-9 6-6 8-2 10 2 10 6 8 8 6 11 2h92v-1l11-2 8-6 6-8 2-10-2-10-6-8-8-5-11-2" stroke="#000"/>
<path d="m598-1294h-71-20l-11 2-8 6-6 8-2 10 2 10 5 8 9 6 10 2h92l1-1 10-2 8-6 6-8 2-10-2-10-6-8-8-5-10-2h-1" stroke="#000"/>
<path d="m404-1277-3 1-2 1-1 2-1 3 2 6 2 1 3 1 3-1 2-1 2-6-1-3-1-2-2-1-3-1" stroke="#000"/>
<path d="m346-1277 6 2 1 2 1 3-2 6-6 2-3-1-2-1-2-6 1-3 1-2 2-1 3-1" stroke="#000"/>
<path d="m580-1277-3 1-2 1-1 2-1 3 2 6 2 1 3 1 3-1 2-1 2-6-1-3-1-2-2-1-3-1" stroke="#000"/>
<path d="m522-1277 6 2 1 2 1 3-2 6-6 2-3-1-2-1-2-6 1-3 1-2 2-1 3-1" stroke="#000"/>
<path d="m534-1240v44h160v-44h-160" stroke="#000"/>
<path d="m374-1240v44h160v-44h-160" stroke="#000"/>
<path d="m772-1294-3 21v7 6 6l1 5 1 6 2 1h22 1l1-6 1-5 1-6v-6-7l-2-14-2-7v-1h-22-1" stroke="#000"/>
<path d="m742-1294h-72-20l-10 2-9 6-6 8-2 10 2 10 6 8 8 6 10 2h1 92v-1l10-2 8-6 6-8 2-10-2-10-6-8-8-5-10-2" stroke="#000"/>
<path d="m918-1294h-72-20l-10 2-9 6-6 8-2 10 2 10 6 8 8 6 10 2h1 92v-1l10-2 9-6 5-8 2-10-2-10-5-8-9-5-10-2" stroke="#000"/>
<path d="m724-1277-3 1-2 1-2 2-1 3 1 3 2 3 2 1 3 1 3-1 2-1 2-6-1-3-1-2-2-1-3-1" stroke="#000"/>
<path d="m666-1277 3 1 2 1 1 2 1 3-2 6-2 1-3 1-3-1-2-1-2-6 1-3 1-2 2-1 3-1" stroke="#000"/>
<path d="m900-1277-3 1-2 1-2 2-1 3 1 3 2 3 2 1 3 1 3-1 2-1 2-6-1-3-1-2-2-1-3-1" stroke="#000"/>
<path d="m842-1277 3 1 2 1 1 2 1 3-2 6-2 1-3 1-3-1-2-1-2-6 1-3 1-2 2-1 3-1" stroke="#000"/>
<path d="m854-1240v44h160v-44h-160" stroke="#000"/>
<path d="m694-1240v44h160v-44h-160" stroke="#000"/>
<path d="m1196-1156-9 23-6 14-2 7-1 2-12-17-9-22-4-19-2-8" stroke="#000"/>
<path d="m1238-1139-9 23-5 14-3 7-1 2 10-1 10-3 10-5 11-6 16-10 4-4 2-1" stroke="#000"/>
<path d="m1072-1192v25 15 7 2l-9-4-8-7-9-9-7-9-7-8-5-8-3-5-1-2" stroke="#000"/>
<path d="m1118-1192v25 15 7 2l9-4 8-7 8-8 7-9 6-8 5-7 3-5 1-2" stroke="#000"/>
<path d="m1493-1038-9 23-6 14-2 7-1 2-12-17-9-22-4-20-2-8" stroke="#000"/>
<path d="m1536-1021-9 23-6 14-2 7-1 2 10-1 10-3 10-5 10-6 9-5 7-5 4-4 2-1" stroke="#000"/>
<path d="m1344-1097-9 23-6 14-2 7-1 2-12-17-8-22-4-20-2-8" stroke="#000"/>
<path d="m1387-1080-9 23-6 14-2 7-1 2 10-1 10-3 10-5 11-6 16-10 4-4 2-1" stroke="#000"/>
<path d="m1092-1294-1 7-2 7-1 7v7 6l1 6 1 5 1 6 1 1h23 1l1-6 1-5v-6-6-7l-3-21v-1h-23" stroke="#000"/>
<path d="m1061-1294h-71-20l-11 2-8 6-6 8-2 10 2 10 6 8 8 6 10 2h92l1-1 10-2 8-6 6-8 2-10-2-10-6-8-8-5-10-2h-1" stroke="#000"/>
<path d="m1239-1249-66-26-19-7-5-2h-6-5l-5 2-4 2-4 3-4 4-2 5-2 10 2 10 6 8 9 6 86 34v-1l5 1 6 1 5-1 4-1 5-3 4-3 3-3 2-5 2-10-2-10-6-8-9-6" stroke="#000"/>
<path d="m1043-1277-3 1-2 1-1 2-1 3 2 6 2 1 3 1 6-2 2-6-1-3-1-2-6-2" stroke="#000"/>
<path d="m986-1277 3 1 2 1 1 2 1 3-2 6-2 1-3 1-3-1-2-1-2-3-1-3 1-3 2-2 2-1 3-1" stroke="#000"/>
<path d="m1216-1239-3-1-3 1-2 1-2 3v3l1 3 1 2 2 1 3 1 3-1 2-1 2-3v-3-2l-2-3-2-1" stroke="#000"/>
<path d="m1162-1260 3 1 1 2 1 3-2 6-2 1-3 1-6-2-1-3-1-2 2-6 2-1 3-1 3 1" stroke="#000"/>
<path d="m1160-1222-17 41 149 59 16-41-148-59" stroke="#000"/>
<path d="m1014-1240v44l129 15 17-41-146-18" stroke="#000"/>
<path d="m1401-1185-8 12-3 6-3 7-2 6-2 5-1 6-1 5 1 2 21 8h1l9-15 2-5 2-7 2-6 2-7 1-7v-1l-21-9" stroke="#000"/>
<path d="m1372-1196-66-26-19-8-10-2-5 1-10 4-4 3-3 4-3 5-2 10 3 10 5 8 9 5 1 1 85 34 1-1 10 2 10-2 8-6 3-3 3-5 2-10-3-10-5-8-9-6h-1" stroke="#000"/>
<path d="m1536-1131-66-26-19-8-10-2-5 1-10 4-4 3-4 4-2 5-2 10 3 10 5 8 9 5v1l86 34 1-1 10 2 10-2 8-6 3-3 2-5 2-10-2-10-6-8-9-6" stroke="#000"/>
<path d="m1349-1186-3-1-3 1-2 1-2 6 1 3 1 2 6 2 3-1 2-1 2-6-1-3-1-2-3-1" stroke="#000"/>
<path d="m1296-1208 4 4v3 3l-2 3-2 1-3 1-3-1-2-1-2-3v-2-3l2-3 2-1 3-1h3" stroke="#000"/>
<path d="m1513-1121-3-1-3 1-2 1-2 3v3l1 2 1 3 6 2 2-1 3-1 2-6-1-3-1-2-3-1" stroke="#000"/>
<path d="m1459-1143 3 2 1 2 1 3-1 3-1 2-2 2h-3-3l-3-2-1-2-1-3 1-3 1-2 3-1 2-1h3" stroke="#000"/>
<path d="m1457-1104-16 41 148 59 17-41-149-59" stroke="#000"/>
<path d="m1308-1163-16 41 149 59 16-41-149-59" stroke="#000"/>
<path d="m1670-1081-67-25-19-6-5-2h-5l-10 2-8 6-4 4-2 5-2 10 3 10 5 8 9 5h1l86 32v-1l5 1 6 1 5-1 4-1 5-3 4-3 3-3 2-5 2-10-3-10-6-8-9-5v-1" stroke="#000"/>
<path d="m1647-1071h-3l-3 1-2 1-2 6 1 2 1 3 3 1h3 3l2-2 1-2 1-3-1-3-1-2-3-2" stroke="#000"/>
<path d="m1593-1091 3 2 1 2 1 3-1 3-1 2-2 2h-3-3l-3-1-1-3-1-2 2-6 2-1 3-1h3" stroke="#000"/>
<path d="m1138-791 24-15 22-18 19-21 17-24 13-25 10-28 6-29 2-30-1-22-3-21-6-21-7-20-9-19-11-18-12-16-14-16-16-14-16-12-18-11-19-9-20-7-21-6-21-3-22-1-22 1-22 3-21 6-20 7-19 9-17 11-17 12-15 14-14 16-13 16-11 18-9 19-7 20-6 21-3 21-1 22 2 31 7 29 10 28 14 26 17 24 20 21 22 18 25 15" stroke="#000"/>
<path d="m510-789 24-15 23-18 19-21 17-24 13-25 10-28 6-29 2-30-1-22-3-22-6-20-7-20-9-19-11-18-13-17-13-15-16-14-17-12-17-11-19-9-20-7-21-6-22-3-22-1-22 1-21 3-21 6-20 7-19 9-18 11-16 12-16 14-14 15-12 17-11 18-9 19-7 20-6 20-3 22-1 22 2 31 6 29 11 28 13 26 17 24 20 21 23 18 25 15" stroke="#000"/>
<path d="m10-791 24-15 23-18 19-21 17-24 13-25 10-28 6-29 2-30-1-22-3-21-6-21-7-20-9-19-11-18-26-32-16-14-17-12-17-11-19-9-20-7-21-6-22-3-22-1-22 1-21 3-21 6-20 7-19 9-18 11-16 12-16 14-14 16-12 16-11 18-9 19-7 20-6 21-3 21-1 22 2 31 6 29 11 28 13 26 17 24 20 21 23 18 25 15" stroke="#000"/>
<path d="m-490-792 24-15 22-19 20-21 16-23 13-26 10-27 6-29 2-30-1-22-3-22-6-21-7-20-9-19-11-17-12-17-14-15-16-14-16-13-18-11-19-9-20-7-21-6-21-3-22-1-22 1-21 3-21 6-20 7-19 9-18 11-16 13-16 14-14 15-12 17-11 17-9 19-7 20-6 21-3 22-1 22 2 31 6 29 11 28 13 26 17 23 20 21 23 19 25 15" stroke="#000"/>
<path d="m-990-791 24-15 22-18 19-21 17-24 13-25 10-28 6-29 2-30-1-22-3-21-6-21-7-20-9-19-11-18-12-16-14-16-16-14-16-12-18-11-19-9-20-7-21-6-21-3-22-1-22 1-22 3-20 6-20 7-19 9-18 11-17 12-15 14-14 16-12 16-11 18-9 19-7 20-6 21-3 21-1 22 2 31 6 29 11 28 13 26 17 24 20 21 22 18 25 15" stroke="#000"/>
<path d="m-1490-791 24-15 22-18 19-21 17-24 13-25 10-28 6-29 2-30-1-22-3-21-6-21-7-20-9-19-11-18-12-16-14-16-16-14-16-12-18-11-19-9-20-7-21-6-21-3-22-1-22 1-22 3-21 6-20 7-19 9-17 11-17 12-15 14-14 16-13 16-11 18-9 19-7 20-6 21-3 21-1 22 2 31 7 29 10 28 14 26 17 24 20 21 22 18 25 15" stroke="#000"/>
<path d="m-1989-791 24-15 23-18 19-21 17-24 13-25 10-28 6-29 2-30-1-22-3-21-6-21-7-20-9-19-11-18-26-32-16-14-17-12-17-11-19-9-20-7-21-6-22-3-22-1-22 1-21 3-21 6-20 7-19 9-18 11-16 12-16 14-14 16-12 16-11 18-9 19-7 20-6 21-3 21-1 22 2 31 6 29 11 28 13 26 17 24 20 21 23 18 25 15" stroke="#000"/>
<path d="m3025-82h-1267l-45-41h-291l-41 41h-532l-2-3-5-7-7-11-9-12-10-14-24-32-10-8-17-11-22-13-48-24-20-11-15-6-5-3" stroke="#000"/>
<path d="m1261-280 6-5-10 19-14 12-15 6-15 1-16-5-13-9-10-14-8-15 12-4 6 13 8 10 11 7 12 5 11-1 11-4 10-10 8-15 6-5z" fill="#000" fill-rule="nonzero"/>
<path d="m1795-280h-15-23-31-37-42-45-47-47-47-45-42-37-31-24-16-5v-14h5 16 24 31 37 42 45 47 47 47 45 42 37 31 23 15z" fill="#000" fill-rule="nonzero"/>
<path d="m2192-384-22 22-24 17-25 15-28 12-28 10-31 8-29 7-31 4-29 4-28 2-27 2-25 1h-22-19-17-12v-14h12 17 19 22l25 1 27-2 28-2 58-8 29-7 29-8 28-10 26-12 25-13 22-17 19-19-1 1z" fill="#000" fill-rule="nonzero"/>
<path d="m2307-600 6 10-121 206-12-6 121-206 6 10z" fill="#000" fill-rule="nonzero"/>
<path d="m2194-597 6-4 107 1v14l-107-1 6-4-12-6 3-4h3z" fill="#000" fill-rule="nonzero"/>
<path d="m2170-538-11 1 35-60 12 6-35 60-11 1 11-1-6 9-5-8z" fill="#000" fill-rule="nonzero"/>
<path d="m2034-707 136 169-10 8-136-169z" fill="#000" fill-rule="nonzero"/>
<path d="m1991-765 2 1 2 3 3 4 6 7 7 12 10 13 13 18-10 8-13-18-10-15-7-10-6-7-3-4-2-3v-1z" fill="#000" fill-rule="nonzero"/>
<path d="m1960-795 4 3 27 27-8 8-27-27 4 3z" fill="#000" fill-rule="nonzero"/>
<path d="m-2249-781v-14h4209v14h-4209v-14z" fill="#000" fill-rule="nonzero"/>
<path d="m-2972-551 5-6 2-1 6-2 10-3 13-4 16-6 20-6 22-7 24-8 26-9 28-9 30-10 31-10 33-11 32-10 68-22 33-12 34-11 33-10 32-11 60-20 28-9 26-9 24-8 22-7 18-6 16-6 13-4 15-5 3 12v-14l1 14-15 5-13 4-16 6-18 6-22 7-24 8-26 9-28 9-60 20-32 11-33 10-34 11-33 12-68 22-32 10-33 11-31 10-30 10-28 9-26 9-24 8-22 7-20 6-16 6-13 4-10 3-6 2-2 1 5-6z" fill="#000" fill-rule="nonzero"/>
<path d="m-2972-99v-452h14v452z" fill="#000" fill-rule="nonzero"/>
<path d="m-2965-61-7-7v-31h14v31l-7-7v14h-7v-7z" fill="#000" fill-rule="nonzero"/>
<path d="m-1909-62-1 1h-1055v-14h1055l-1 1 2 12-1 1z" fill="#000" fill-rule="nonzero"/>
<path d="m-1175-212 6 10-740 140-2-12 740-140 6 10-6-10 17-4-11 14z" fill="#000" fill-rule="nonzero"/>
<path d="m-1221-149-4 2 50-65 10 8-50 65-4 2 4-2-2 2h-2z" fill="#000" fill-rule="nonzero"/>
<path d="m-2019-26 4-2 794-121 2 12-794 121 4-2-10-8 2-2h2z" fill="#000" fill-rule="nonzero"/>
<path d="m-2159 171-1-9 141-188 10 8-141 188-1-9-8 10-5-5 4-4z" fill="#000" fill-rule="nonzero"/>
<path d="m-1974 349-4-1-181-177 8-10 181 177-4-1v12h-3l-1-1z" fill="#000" fill-rule="nonzero"/>
<path d="m-1837 367v-1l-137-17v-12l137 17v-1z" fill="#000" fill-rule="nonzero"/>
<path d="m-967 363v1l-870 3v-14l870-3v1z" fill="#000" fill-rule="nonzero"/>
<path d="m-460 350v-1l-507 14v-12l507-14v-1z" fill="#000" fill-rule="nonzero"/>
<path d="m-337 356-12-2-18-2-21-1-20-1h-20-17-11-4v-14h4 11 17l20 2 20 1 21 1 18 2 14 2z" fill="#000" fill-rule="nonzero"/>
<path d="m-148 347 7 1-15 10-16 8-15 5-15 4-15 2-13 2h-13l-12-2-13-2-12-2-11-3-10-3-11-3-9-3-8-3-8-2 2-12 8 2 10 3 18 6 10 3 11 3 12 2 11 2h12 13 13l13-2 13-4 15-5 14-8 15-8 7 1z" fill="#000" fill-rule="nonzero"/>
<path d="m-103 391-4-3-41-41 8-8 41 41-4-3z" fill="#000" fill-rule="nonzero"/>
<path d="m125 386-6 5h-222v-14h222l-6 5 12 4-2 4-4 1z" fill="#000" fill-rule="nonzero"/>
<path d="m140 338 3 7-18 41-12-4 18-41 3 7 6-10 5 3-2 4z" fill="#000" fill-rule="nonzero"/>
<path d="m102 316-3-5 41 27-6 10-41-27-3-5 3 5-4-2 1-3z" fill="#000" fill-rule="nonzero"/>
<path d="m102 267 6-6-6 55h-12l6-55 6-6-6 6v-6h6z" fill="#000" fill-rule="nonzero"/>
<path d="m723 217-4 2-617 48v-12l617-48-4 2 8 8-1 2h-3z" fill="#000" fill-rule="nonzero"/>
<path d="m815 123 4-2-96 96-8-8 96-96 4-2-4 2 2-2h2z" fill="#000" fill-rule="nonzero"/>
<path d="m1148 111-4 2-329 10v-12l329-10-4 2 8 8-2 2h-2z" fill="#000" fill-rule="nonzero"/>
<path d="m1175 83 4-3-31 31-8-8 31-31 4-3-4 3 2-2 2-1z" fill="#000" fill-rule="nonzero"/>
<path d="m1380 81 4 2h-209v-14h209l4 2-4-2h2l2 2z" fill="#000" fill-rule="nonzero"/>
<path d="m1415 110-4-2-31-27 8-10 31 27-4-2v14h-2l-2-2z" fill="#000" fill-rule="nonzero"/>
<path d="m1718 107-5 3h-298v-14h298l-5 3 10 8-2 3h-3z" fill="#000" fill-rule="nonzero"/>
<path d="m1761 56 5-3-48 54-10-8 48-54 5-3-5 3 2-3h3z" fill="#000" fill-rule="nonzero"/>
<path d="m2990 53 5 3h-1234v-14h1234l5 3-5-3h3l2 3z" fill="#000" fill-rule="nonzero"/>
<path d="m3016 83-5-3-21-27 10-8 21 27-5-3v14h-3l-2-3z" fill="#000" fill-rule="nonzero"/>
<path d="m3098 79-6 4h-76v-14h76l-6 4 12 6-3 4h-3z" fill="#000" fill-rule="nonzero"/>
<path d="m3107 58 5-3-14 24-12-6 14-24 5-3-5 3 2-3h3z" fill="#000" fill-rule="nonzero"/>
<path d="m3113-89 3 2 13 13 9 18 5 22 3 23-3 23-7 21-12 16-17 9-2-12 11-7 8-12 7-17 1-21-1-21-5-20-7-16-9-9 3 2v-14l1 1 2 1z" fill="#000" fill-rule="nonzero"/>
<path d="m3089-82v-7h24v14h-24v-7z" fill="#000" fill-rule="nonzero"/>
<path d="m-412 624-164-61v-48l18 9 12 7 15 7 16 9 17 8 36 18 17 9 16 7 15 7 12 5 10 3 6 1 2-1-4-3-10 8-10 10-4 5" stroke="#000"/>
<path d="m2193-404-929 110" stroke="#000"/>
<path d="m-384 587-12-10-8-7-6-5-2-2h-1-4l-6 1h-7-9-9-10l-9-1-13-5-4-7-1-6 1-3h-1-2l-5 1h-5-7-7-8l-9-1-12-5-4-7 1-6 1-3h-1l-3 1-7 1-13 2-7-1-7-6-6-8-3-10-1-10 3-10 6-7 12-3" stroke="#000"/>
<path d="m-408 614-144-41-10-4-7-6-4-7-3-8-1-8v-6l1-4v-2" stroke="#000"/>
<path d="m-696 463v-41l109 4v-31l55-35" stroke="#000"/>
<path d="m-826 467-1-9v-7l2-7 4-6 6-6 10-5 13-4 17-4-68-4" stroke="#000"/>
<path d="m-847 374-15-3h-11l-8 2-6 3-3 4-1 6 1 6 2 6" stroke="#000"/>
<path d="m-950 450 2-11 3-8 4-7 6-4 5-2h7l7 3 7 5" stroke="#000"/>
<path d="m-933 422 1-11 1-8 3-7 5-5 6-3 8-2h9l12 2" stroke="#000"/>
<path d="m-700 422-7-2h-7-6l-7 1-12 2h-6l-6-1-7-4 1-6 4-5 2-2" stroke="#000"/>
<path d="m94 256-214 5-14 8-11 9-7 12-4 12-1 12 3 13 6 12 10 11" stroke="#000"/>
<path d="m-120 261 1-28-2-22-2-14-1-5-62-44" stroke="#000"/>
<path d="m143 216 93-380" stroke="#000"/>
<path d="m771-171h-874-377l-1364 120" stroke="#000"/>
<path d="m1220-253 1-8v-14l-1-13v-6" stroke="#000"/>
<path d="m-100-236h692l554-56" stroke="#000"/>
<path d="m-17-299 3-2 1186 2v14l-1186-2 3-2-6-10 1-2h2z" fill="#000" fill-rule="nonzero"/>
<path d="m-132-226 2-1 113-72 6 10-113 72 2-1-10-8 1-1h1z" fill="#000" fill-rule="nonzero"/>
<path d="m-182-209 2 1 5 1h6l7-1 8-2 7-3 8-5 7-8 10 8-9 10-10 7-11 3-8 2-9 1h-6l-5-1-2 1z" fill="#000" fill-rule="nonzero"/>
<path d="m-199-191 4-1 2-4 2-6 9-7v14l3-1-2 6-6 8-12 5z" fill="#000" fill-rule="nonzero"/>
<path d="m-320-187-6-4h4 10 15 19 21 21 20 17v14h-17-20-21-21-19-15-10-4l-6-4z" fill="#000" fill-rule="nonzero"/>
<path d="m-340-219 6 4 14 28-12 6-14-28 6 4z" fill="#000" fill-rule="nonzero"/>
<path d="m-901-214 6-5h555v14h-555l6-5-12-4 2-4 4-1z" fill="#000" fill-rule="nonzero"/>
<path d="m-905-191 4 12-11-5 1-3 3-10 7-17 12 4-7 17-3 8 1 1-11-5 4 12z" fill="#000" fill-rule="nonzero"/>
<path d="m-1014-188-4-3h113v14h-113l-4-3z" fill="#000" fill-rule="nonzero"/>
<path d="m-1042-215 4 3 24 24-8 8-24-24 4 3v-14l2 1 2 2z" fill="#000" fill-rule="nonzero"/>
<path d="m-1196-215h11 20 25 27 26 23 16 6v14h-6-16-23-26-27-25-20-11z" fill="#000" fill-rule="nonzero"/>
<path d="m-1307-245h3l4 1 10 4 15 5 17 6 19 5 18 5 15 4h10v14l-12-2-15-4-18-5-19-5-19-6-15-5-10-4-4-1h3z" fill="#000" fill-rule="nonzero"/>
<path d="m-1940-100 2-1 631-144 2 12-631 144 2-1z" fill="#000" fill-rule="nonzero"/>
<path d="m-2033-74h2l8-2 12-2 15-3 16-4 15-5 14-5 11-5 6 10-13 7-14 5-17 5-16 4-15 3-12 2-8 2h-4z" fill="#000" fill-rule="nonzero"/>
<path d="m-110-236h-1186" stroke="#000"/>
<path d="m-199-205-6 1h-14-20-21-22l-19-1h-13-5" stroke="#000"/>
<path d="m-919-202h-5-11-16-17-17-15-11-4" stroke="#000"/>
<path d="m-168-318-14 14-7 6-7 5-6 5-5 3-2 1h-4l-8 1h-11l-11 1-12 1h-10l-7 1h-3l-10-18" stroke="#000"/>
<path d="m-2968-253h-141l-12 3-8 7-6 11-3 12-2 11v11 7 3" stroke="#000"/>
<path d="m-3095-253-12-8-8-7-5-6-3-6v-5-3l1-2v-1-140-18l3-17 7-14 14-6 13-1 18-1h22l23 1h21 19l12 1h5" stroke="#000"/>
<path d="m-2965-452h-9-19-25-28-27-23-17-6" stroke="#000"/>
<path d="m-3126-414-5-2-10 1h-8l-4 1" stroke="#000"/>
<path d="m-3122-442h-2l-4 1h-6l-7 1h-6-6l-3-1-1-1" stroke="#000"/>
<path d="m-837-328v6l1 11v12l-1 5-149 2v-31" stroke="#000"/>
<path d="m212-291-2 8-4 17-5 17-6 8h-7l-10-1-8-1h-3l-2-7-5-15-6-17-2-9-2-1h-6-9-9-10l-9 1h-6-2l-12 48-36-3-14-45" stroke="#000"/>
<path d="m144-168-8 1-7 3-7 4-6 6-8 16-2 9-1 10 1 10 2 8 4 9 4 7 6 6 7 4 7 3 8 1 8-1 7-3 6-4 6-6 5-7 3-9 2-8 1-10-1-10-2-9-3-8-5-8-6-6-6-4-7-3-8-1" stroke="#000"/>
<path d="m-1851-322h-120" stroke="#000"/>
<path d="m1723-291v-55" stroke="#000"/>
<path d="m-2228-322v-455" stroke="#000"/>
<path d="m-261-301 7-10 11-7 9-6 4-3 6 10-4 3-9 6-9 7h-1z" fill="#000" fill-rule="nonzero"/>
<path d="m-312-303-4-2h3 7 10 11l11-1h10 6l-3 5h14l-9 7-8 2h-10l-11 1h-11-10-7-3l-4-2z" fill="#000" fill-rule="nonzero"/>
<path d="m-357-335 4 2 41 30-8 10-41-30 4 2z" fill="#000" fill-rule="nonzero"/>
<path d="m-874-328 7-7h510v14h-510l7-7h-14v-7h7z" fill="#000" fill-rule="nonzero"/>
<path d="m-867-281-7 7v-54h14v54l-7 7 7-7v7h-7z" fill="#000" fill-rule="nonzero"/>
<path d="m-956-274-7-7h4 10 15 18 17 15 12 5v14h-5-12-15-17-18-15-10-4l-7-7z" fill="#000" fill-rule="nonzero"/>
<path d="m-963-332 7 7v51h-14v-51l7 7z" fill="#000" fill-rule="nonzero"/>
<path d="m-1238-333 4-2 271 3v14l-271-3 4-2-8-10 2-2h2z" fill="#000" fill-rule="nonzero"/>
<path d="m-1292-287-4 2 58-48 8 10-58 48-4 2 4-2-4 2z" fill="#000" fill-rule="nonzero"/>
<path d="m-1329-283-5-4h42v14h-42l-5-4 5 4-3-1-2-3z" fill="#000" fill-rule="nonzero"/>
<path d="m-1359-321 6 3 24 35-10 6-24-35 6 3-2-12 4-1 2 4z" fill="#000" fill-rule="nonzero"/>
<path d="m-1385-313-4-1 30-7 2 12-30 7-4-1 4 1-2 1-2-2z" fill="#000" fill-rule="nonzero"/>
<path d="m-1409-329 24 16-6 10-21-14 3 2v-14h2l1 2z" fill="#000" fill-rule="nonzero"/>
<path d="m-1858-322 7-7h442v14h-442l7-7h-14v-7h7z" fill="#000" fill-rule="nonzero"/>
<path d="m-1855-275-3 5v-52h14v52l-3 5 3-5v2l-3 3z" fill="#000" fill-rule="nonzero"/>
<path d="m-1872-257-4 2 21-20 8 10-21 20-4 2 4-2-2 2h-2z" fill="#000" fill-rule="nonzero"/>
<path d="m-1946-255-4-2h78v14h-78l-4-2 4 2h-2l-2-2z" fill="#000" fill-rule="nonzero"/>
<path d="m-1964-270-3-5 21 20-8 10-21-20-3-5 3 5-3-3v-2z" fill="#000" fill-rule="nonzero"/>
<path d="m-1971-329 7 7v52h-14v-52l7 7v-14h7v7z" fill="#000" fill-rule="nonzero"/>
<path d="m-2965-322v-7h994v14h-994v-7z" fill="#000" fill-rule="nonzero"/>
<path d="m-3138-206 1 21v19l1 15 3 12 9 18 7 7 7 5 10 4 11 4 14 2 17 1 19 1 21 1h24l26 1v12l-26 1-24-2-21-1-19-1-17-1-16-2-13-4-12-4-9-7-9-9-6-10-5-12-3-16-1-15-2-19 1-21z" fill="#000" fill-rule="nonzero"/>
<path d="m-1361-781v62h65v68h-62" stroke="#000"/>
<path d="m-1296-678h-62v363" stroke="#000"/>
<path d="m-1097-270v-34h-93v34h93" stroke="#000"/>
<path d="m-919-294v-494" stroke="#000"/>
<path d="m-275-637h5 7 10 10 10 9 6 2l-4-82" stroke="#000"/>
<path d="m-21-294-254-34v-350l48-7 7-34h-48v-72" stroke="#000"/>
<path d="m171-308v-78-165-163-74" stroke="#000"/>
<path d="m728-303-24-3-15-8-8-12v-13l5-14 9-12 14-8 17-3-3-35v-78l2-79 1-35-27-13v-41l20-7v-124" stroke="#000"/>
<path d="m1425 103v-223" stroke="#000"/>
<path d="m1850 49v-131" stroke="#000"/>
<path d="m1802-82v131" stroke="#000"/>
<path d="m1761 49v-131" stroke="#000"/>
<path d="m1713-121v224" stroke="#000"/>
<path d="m1384 76v-158" stroke="#000"/>
<path d="m3089-6v-90h-59v90" stroke="#000"/>
<path d="m3030 28h59" stroke="#000"/>
<path d="m1170 80h-319" stroke="#000"/>
<path d="m627 221 224-296 13 28 10 22 8 17 5 12 2 10-1 9-4 9-6 10-62 76-11-3-8-5-4-5-3-5-1-5-1-4 1-3v-1l55-76-24-45" stroke="#000"/>
<path d="m985-278v79h-127l-18-6-13-8-10-9-6-9-3-9-2-7v-5-2" stroke="#000"/>
<path d="m950-275v41h-76l-15-3h-1l2 1 9 3h1" stroke="#000"/>
<path d="m785 41-6 1-4 4-3 4-1 6 1 6 3 4 4 3 6 1 6-1 5-3 3-4 1-6-1-6-3-4-5-4-6-1" stroke="#000"/>
<path d="m1463-732v104h103v-104h-103" stroke="#000"/>
<path d="m1515-719-8 1-8 2-6 4-6 5-5 6-4 6-2 8-1 8 1 8 2 8 4 6 5 6 6 5 6 4 8 2 8 1 8-1 8-2 6-4 6-5 5-6 4-6 2-8 1-8-1-8-2-8-4-6-5-6-6-5-6-4-8-2-8-1" stroke="#000"/>
<path d="m1564-666-8 3-6 5-7 6-5 6-4 6-3 5-2 4-1 1" stroke="#000"/>
<path d="m1526-730 6 10 6 8 13 13 6 4 5 4 3 1 1 1" stroke="#000"/>
<path d="m1463-690 10-6 8-6 13-13 4-6 3-5 2-3 1-1" stroke="#000"/>
<path d="m1500-630-4-9-5-7-6-7-6-6-6-5-5-3-4-2-1-1" stroke="#000"/>
<path d="m1066-788 17-4 17-5 16-6 15-8 14-9 14-10 12-11 12-13 10-13 10-14 8-15 12-32 4-17 2-18 1-18-1-20-3-19-5-19-6-17-9-17-9-16-12-15-12-14-14-13-15-11-16-10-17-8-18-6-19-5-19-3-20-1-20 1-19 3-19 5-18 6-17 8-16 10-15 11-14 13-13 14-11 15-10 16-8 17-6 17-5 19-3 19-1 20 3 35 9 33 14 30 19 28 24 23 27 19 30 15 33 9" stroke="#000"/>
<path d="m1035-1136-31 3-30 9-26 15-23 19-19 23-15 26-9 30-3 31 3 31 9 30 15 26 19 23 23 19 26 14 30 9 31 3 31-3 30-9 26-14 23-19 19-23 15-26 9-30 3-31-3-31-9-30-15-26-19-23-23-19-26-15-30-9-31-3" stroke="#000"/>
<path d="m1035-1035-11 1-11 3-18 12-12 18-3 11-1 11 1 11 3 11 12 18 18 12 11 3 11 1 11-1 11-3 18-12 12-18 3-11 1-11-1-11-3-11-12-18-18-12-11-3-11-1" stroke="#000"/>
<path d="m1117-946-7 1-6 4-4 6-1 7 1 7 4 6 6 4 7 1 6-1 6-4 4-6 1-7-1-7-4-6-6-4-6-1" stroke="#000"/>
<path d="m1120-1e3 -5 5-2 7v7l3 6 5 5 7 2h6l6-3 5-5 2-7v-7l-3-6-5-5-6-2h-7l-6 3" stroke="#000"/>
<path d="m1090-1046-1 7 2 7 4 6 7 3 7 1 6-2 6-4 3-7 1-7-2-6-4-6-7-3-7-1-6 2-6 4-3 6" stroke="#000"/>
<path d="m1040-1065 3 6 5 4 7 2 7-1 6-3 4-6 2-6-1-7-3-6-6-4-6-2-7 1-6 3-4 6-2 6 1 7" stroke="#000"/>
<path d="m987-1051 6 3h7l7-2 5-5 3-6v-7l-2-7-5-5-6-3h-7l-7 2-5 5-3 6v7l2 7 5 5" stroke="#000"/>
<path d="m953-1009 6-1 6-4 4-6 1-7-1-6-4-6-6-4-6-1-7 1-6 4-4 6-1 6 1 7 4 6 6 4 7 1" stroke="#000"/>
<path d="m950-955 4-5 2-7v-6l-3-6-5-5-6-2h-7l-6 3-5 5-2 6v7l3 6 5 5 7 2h7l6-3" stroke="#000"/>
<path d="m979-909 1-7-2-6-4-6-6-3-7-1-7 2-5 4-3 6-1 7 2 6 4 6 6 3 7 1 6-2 6-4 3-6" stroke="#000"/>
<path d="m1030-889-3-7-6-4-6-2-7 1-7 3-4 6-2 6 1 7 3 7 6 4 7 2 7-1 6-3 4-6 2-6-1-7" stroke="#000"/>
<path d="m1082-903-6-3h-7l-6 2-5 5-3 6v6l2 7 5 5 6 3h7l6-2 5-5 3-6v-7l-2-6-5-5" stroke="#000"/>
<path d="m438-787 17-3 17-5 16-7 15-7 14-9 14-10 24-24 10-13 10-14 8-15 12-32 4-17 2-18 1-18-1-20-3-19-5-19-6-18-8-17-10-16-11-15-13-14-14-12-15-12-16-9-17-9-17-6-19-5-19-3-20-1-20 1-19 3-19 5-18 6-17 9-16 9-15 12-14 12-13 14-11 15-10 16-8 17-6 18-5 19-3 19-1 20 3 35 9 33 14 30 19 27 23 24 27 19 30 14 33 9" stroke="#000"/>
<path d="m408-1134-31 3-30 9-26 14-23 19-19 23-15 27-9 29-3 31 3 31 9 30 15 26 19 23 23 19 26 15 30 9 31 3 31-3 30-9 26-15 23-19 19-23 15-26 9-30 3-31-3-31-9-29-15-27-19-23-23-19-26-14-30-9-31-3" stroke="#000"/>
<path d="m408-1034-11 1-11 4-10 5-8 7-7 8-5 10-4 11-1 11 1 11 4 11 5 9 7 9 8 6 10 6 11 3 11 1 11-1 10-3 10-6 8-6 7-9 5-9 4-11 1-11-1-11-4-11-5-10-7-8-8-7-10-5-10-4-11-1" stroke="#000"/>
<path d="m489-944-6 1-6 4-4 6-1 7 1 7 4 5 6 4 6 1 7-1 6-4 4-5 1-7-1-7-4-6-6-4-7-1" stroke="#000"/>
<path d="m492-998-4 5-2 7v6l3 6 5 5 6 2h7l6-3 5-5 2-6v-7l-3-6-5-5-7-2h-7l-6 3" stroke="#000"/>
<path d="m463-1044-1 7 2 6 4 6 6 3 7 1 6-2 6-4 3-6 1-7-2-6-4-6-6-3-7-1-6 2-6 4-3 6" stroke="#000"/>
<path d="m412-1063 3 6 6 4 6 2 7-1 7-3 4-6 2-6-1-7-3-7-6-4-6-2-7 1-7 3-4 6-2 7 1 7" stroke="#000"/>
<path d="m360-1050 6 3h6l7-2 5-4 3-6v-7l-2-7-5-5-6-3h-7l-6 2-5 5-3 6v7l2 6 5 5" stroke="#000"/>
<path d="m325-1007 7-1 6-4 4-6 1-7-1-7-4-6-6-4-7-1-6 1-6 4-4 6-1 7 1 7 4 6 6 4 6 1" stroke="#000"/>
<path d="m322-953 5-5 2-7v-7l-3-6-5-5-7-2h-6l-6 3-5 5-2 7v7l3 6 5 5 6 2h7l6-3" stroke="#000"/>
<path d="m352-907 1-7-2-7-4-6-7-3-7-1-6 2-6 4-3 7-1 7 2 6 4 6 7 3 7 1 6-2 6-4 3-6" stroke="#000"/>
<path d="m402-888-3-6-5-4-7-2-7 1-6 3-4 6-2 6 1 7 3 6 6 4 6 2 7-1 6-3 4-5 2-7-1-7" stroke="#000"/>
<path d="m455-902-6-3h-7l-7 2-5 5-3 6v7l2 7 5 5 6 3h7l7-2 5-5 3-6v-7l-2-7-5-5" stroke="#000"/>
<path d="m-62-788 17-4 17-5 16-6 15-8 14-9 14-10 12-11 12-13 10-13 10-14 8-15 12-32 4-17 2-18 1-18-1-20-3-19-5-19-6-17-8-17-10-16-11-15-13-14-14-13-15-11-16-10-17-8-18-6-19-5-19-3-20-1-20 1-19 3-19 5-17 6-17 8-16 10-15 11-14 13-13 14-11 15-10 16-8 17-6 17-5 19-3 19-1 20 3 35 9 33 14 30 19 28 23 23 27 19 30 15 33 9" stroke="#000"/>
<path d="m-92-1136-31 3-30 9-26 15-23 19-19 23-15 26-9 30-3 31 3 31 9 30 15 26 19 23 23 19 26 14 30 9 31 3 31-3 30-9 26-14 23-19 19-23 14-26 9-30 3-31-3-31-9-30-14-26-19-23-23-19-26-15-30-9-31-3" stroke="#000"/>
<path d="m-93-1035-11 1-11 3-18 12-12 18-3 11-1 11 1 11 3 11 12 18 18 12 11 3 11 1 11-1 11-3 18-12 12-18 3-11 1-11-1-11-3-11-12-18-18-12-11-3-11-1" stroke="#000"/>
<path d="m-11-946-7 1-5 4-4 6-1 7 1 7 4 6 5 4 7 1 7-1 6-4 4-6 1-7-1-7-4-6-6-4-7-1" stroke="#000"/>
<path d="m-8-1e3 -5 5-2 7v7l3 6 5 5 7 2h7l6-3 5-5 2-7v-7l-3-6-5-5-7-2h-7l-6 3" stroke="#000"/>
<path d="m-37-1046-1 7 2 7 4 6 6 3 7 1 6-2 6-4 3-7 1-7-2-6-4-6-6-3-7-1-6 2-6 4-3 6" stroke="#000"/>
<path d="m-88-1065 3 6 6 4 6 2 7-1 6-3 5-6 2-6-1-7-3-6-6-4-7-2-7 1-6 3-4 6-2 6 1 7" stroke="#000"/>
<path d="m-141-1051 6 3h7l7-2 5-5 3-6v-7l-2-7-5-5-6-3h-7l-6 2-5 5-3 6v7l2 7 4 5" stroke="#000"/>
<path d="m-175-1009 7-1 6-4 4-6 1-7-1-6-4-6-6-4-7-1-7 1-6 4-4 6-1 6 1 7 4 6 6 4 7 1" stroke="#000"/>
<path d="m-178-955 5-5 2-7v-6l-3-6-5-5-7-2h-7l-6 3-5 5-2 6v7l3 6 5 5 7 2h7l6-3" stroke="#000"/>
<path d="m-148-909 1-7-2-6-4-6-7-3-7-1-6 2-6 4-3 6-1 7 2 6 4 6 6 3 7 1 7-2 6-4 3-6" stroke="#000"/>
<path d="m-98-889-3-7-6-4-6-2-7 1-6 3-4 6-2 6 1 7 3 7 6 4 6 2 7-1 6-3 4-6 2-6-1-7" stroke="#000"/>
<path d="m-45-903-6-3h-7l-7 2-5 5-3 6v6l2 7 5 5 6 3h7l7-2 5-5 3-6v-7l-2-6-5-5" stroke="#000"/>
<path d="m-562-790 17-4 17-5 16-6 15-8 14-9 14-10 12-11 12-12 10-13 10-15 8-15 6-15 6-17 4-17 2-17 1-18-1-20-3-19-5-19-6-18-8-17-10-16-11-15-13-14-14-13-15-11-16-10-17-8-18-6-19-5-19-3-20-1-20 1-19 3-19 5-18 6-17 8-16 10-15 11-14 13-12 14-12 15-9 16-9 17-6 18-5 19-3 19-1 20 3 35 9 33 15 30 19 27 23 23 27 19 30 15 33 9" stroke="#000"/>
<path d="m-593-1138-31 3-29 9-27 15-23 19-19 23-14 26-9 30-3 31 3 31 9 30 14 26 19 23 23 19 27 15 29 9 31 3 32-3 29-9 27-15 23-19 19-23 14-26 9-30 3-31-3-31-9-30-14-26-19-23-23-19-27-15-29-9-32-3" stroke="#000"/>
<path d="m-593-1037-11 1-11 3-18 12-12 18-3 11-1 11 1 11 3 11 12 18 18 12 11 3 11 1 11-1 11-3 18-12 12-18 3-11 1-11-1-11-3-11-12-18-18-12-11-3-11-1" stroke="#000"/>
<path d="m-511-947-7 1-6 4-4 6-1 6 1 7 4 6 6 4 7 1 7-1 6-4 4-6 1-7-1-6-4-6-6-4-7-1" stroke="#000"/>
<path d="m-508-1002-5 5-2 7v7l3 6 5 5 7 2h7l6-3 5-5 2-7v-7l-3-6-5-5-7-2h-7l-6 3" stroke="#000"/>
<path d="m-537-1047-1 7 2 6 4 6 6 3 7 1 6-2 6-4 3-6 1-7-2-7-4-6-6-3-7-1-6 2-6 4-3 7" stroke="#000"/>
<path d="m-588-1067 3 6 6 4 6 2 7-1 6-3 4-6 2-6-1-7-3-6-6-4-6-2-7 1-6 3-4 6-2 6 1 7" stroke="#000"/>
<path d="m-641-1053 6 3h7l7-2 5-5 3-6v-7l-2-7-5-5-6-2h-7l-7 2-5 4-3 6v7l2 7 5 5" stroke="#000"/>
<path d="m-675-1011 7-1 6-4 4-6 1-6-1-7-4-6-6-4-7-1-7 1-6 4-4 6-1 7 1 6 4 6 6 4 7 1" stroke="#000"/>
<path d="m-678-957 5-5 2-6v-7l-3-6-5-5-7-2h-7l-6 3-5 5-2 7v7l3 6 5 4 7 2h7l6-3" stroke="#000"/>
<path d="m-649-911 1-7-2-6-4-6-6-3-7-1-6 2-6 4-3 6-1 7 2 7 4 5 6 3 7 1 6-2 6-4 3-6" stroke="#000"/>
<path d="m-598-891-3-6-6-4-6-2-7 1-6 3-4 5-2 7 1 7 3 6 6 4 6 2 7-1 6-3 4-6 2-6-1-7" stroke="#000"/>
<path d="m-545-905-6-3h-7l-7 2-5 5-3 6v7l2 6 5 5 6 3h7l7-2 5-4 3-6v-7l-2-7-5-5" stroke="#000"/>
<path d="m-1062-788 17-4 17-5 16-6 15-8 14-9 14-10 12-11 12-13 10-13 10-14 8-15 12-32 4-17 2-18 1-18-1-20-3-19-5-19-6-17-8-17-10-16-11-15-13-14-14-13-15-11-16-10-17-8-18-6-19-5-19-3-20-1-20 1-19 3-19 5-18 6-17 8-16 10-15 11-14 13-13 14-11 15-10 16-8 17-6 17-5 19-3 19-1 20 3 35 9 33 15 30 19 28 23 23 27 19 30 15 33 9" stroke="#000"/>
<path d="m-1093-1136-31 3-29 9-27 15-23 19-19 23-14 26-9 30-3 31 3 31 9 30 14 26 19 23 23 19 27 14 29 9 31 3 31-3 30-9 26-14 23-19 19-23 15-26 9-30 3-31-3-31-9-30-15-26-19-23-23-19-26-15-30-9-31-3" stroke="#000"/>
<path d="m-1093-1035-11 1-11 3-18 12-12 18-3 11-1 11 1 11 3 11 12 18 18 12 11 3 11 1 11-1 11-3 18-12 12-18 3-11 1-11-1-11-3-11-12-18-18-12-11-3-11-1" stroke="#000"/>
<path d="m-1011-946-7 1-6 4-4 6-1 7 1 7 4 6 6 4 7 1 7-1 6-4 4-6 1-7-1-7-4-6-6-4-7-1" stroke="#000"/>
<path d="m-1008-1e3 -5 5-2 7v7l3 6 5 5 7 2h7l6-3 5-5 2-7v-7l-3-6-5-5-7-2h-7l-6 3" stroke="#000"/>
<path d="m-1038-1046-1 7 2 7 4 6 7 3 7 1 6-2 6-4 3-7 1-7-2-6-4-6-6-3-7-1-7 2-6 4-3 6" stroke="#000"/>
<path d="m-1088-1065 3 6 6 4 6 2 7-1 6-3 4-6 2-6-1-7-3-6-6-4-6-2-7 1-6 3-4 6-2 6 1 7" stroke="#000"/>
<path d="m-1141-1051 6 3h7l7-2 5-5 3-6v-7l-2-7-5-5-6-3h-7l-7 2-5 5-3 6v7l2 7 5 5" stroke="#000"/>
<path d="m-1175-1009 7-1 5-4 4-6 1-7-1-6-4-6-5-4-7-1-7 1-6 4-4 6-1 6 1 7 4 6 6 4 7 1" stroke="#000"/>
<path d="m-1178-955 5-5 2-7v-6l-3-6-5-5-7-2h-7l-6 3-5 5-2 6v7l3 6 5 5 7 2h7l6-3" stroke="#000"/>
<path d="m-1149-909 1-7-2-6-4-6-6-3-7-1-6 2-6 4-3 6-1 7 2 6 4 6 6 3 7 1 6-2 6-4 3-6" stroke="#000"/>
<path d="m-1098-889-3-7-6-4-6-2-7 1-6 3-4 6-3 6 1 7 3 7 6 4 7 2 7-1 6-3 4-6 2-6-1-7" stroke="#000"/>
<path d="m-1045-903-6-3h-7l-7 2-5 5-3 6v6l2 7 5 5 6 3h7l6-2 5-5 3-6v-7l-2-6-4-5" stroke="#000"/>
<path d="m-1562-788 17-4 17-5 16-6 15-8 14-9 14-10 12-11 12-13 10-13 10-14 8-15 12-32 4-17 2-18 1-18-1-20-3-19-5-19-6-17-9-17-9-16-12-15-12-14-14-13-15-11-16-10-17-8-18-6-19-5-19-3-20-1-20 1-19 3-19 5-18 6-17 8-16 10-15 11-14 13-13 14-11 15-10 16-8 17-6 17-5 19-3 19-1 20 3 35 9 33 14 30 19 28 24 23 27 19 30 15 33 9" stroke="#000"/>
<path d="m-1593-1136-31 3-30 9-26 15-23 19-19 23-15 26-9 30-3 31 3 31 9 30 15 26 19 23 23 19 26 14 30 9 31 3 31-3 30-9 26-14 23-19 19-23 15-26 9-30 3-31-3-31-9-30-15-26-19-23-23-19-26-15-30-9-31-3" stroke="#000"/>
<path d="m-1593-1035-11 1-11 3-18 12-12 18-3 11-1 11 1 11 3 11 12 18 18 12 11 3 11 1 11-1 11-3 18-12 12-18 3-11 1-11-1-11-3-11-12-18-18-12-11-3-11-1" stroke="#000"/>
<path d="m-1511-946-7 1-6 4-4 6-1 7 1 7 4 6 6 4 7 1 7-1 5-4 4-6 1-7-1-7-4-6-5-4-7-1" stroke="#000"/>
<path d="m-1508-1e3 -5 5-2 7v7l3 6 5 5 7 2h7l6-3 4-5 2-7v-7l-3-6-5-5-6-2h-7l-6 3" stroke="#000"/>
<path d="m-1538-1046-1 7 2 7 4 6 7 3 7 1 6-2 6-4 3-7 1-7-2-6-4-6-6-3-7-1-7 2-6 4-3 6" stroke="#000"/>
<path d="m-1588-1065 3 6 6 4 6 2 7-1 6-3 4-6 2-6-1-7-3-6-6-4-6-2-7 1-6 3-4 6-2 6 1 7" stroke="#000"/>
<path d="m-1641-1051 6 3h7l7-2 5-5 3-6v-7l-2-7-5-5-6-3h-7l-7 2-5 5-3 6v7l2 7 5 5" stroke="#000"/>
<path d="m-1675-1009 6-1 6-4 4-6 1-7-1-6-4-6-6-4-6-1-7 1-6 4-4 6-1 6 1 7 4 6 6 4 7 1" stroke="#000"/>
<path d="m-1678-955 4-5 3-7-1-6-2-6-5-5-7-2h-7l-6 3-5 5-2 6v7l3 6 5 5 7 2h7l6-3" stroke="#000"/>
<path d="m-1649-909 1-7-2-6-4-6-6-3-7-1-6 2-6 4-3 6-1 7 2 6 4 6 6 3 7 1 6-2 6-4 3-6" stroke="#000"/>
<path d="m-1598-889-3-7-6-4-6-2-7 1-7 3-4 6-2 6 1 7 3 7 6 4 7 2 7-1 6-3 4-6 2-6-1-7" stroke="#000"/>
<path d="m-1546-903-6-3h-6l-7 2-5 5-3 6v6l2 7 5 5 6 3h7l6-2 5-5 3-6v-7l-2-6-5-5" stroke="#000"/>
<path d="m-2061-788 17-4 17-5 16-6 15-8 14-9 14-10 12-11 12-13 10-13 10-14 8-15 12-32 4-17 2-18 1-18-1-20-3-19-5-19-6-17-8-17-10-16-11-15-13-14-14-13-15-11-16-10-17-8-18-6-19-5-19-3-20-1-20 1-19 3-19 5-17 6-17 8-16 10-15 11-14 13-13 14-11 15-10 16-8 17-6 17-5 19-3 19-1 20 3 35 9 33 14 30 19 28 23 23 27 19 30 15 33 9" stroke="#000"/>
<path d="m-2091-1136-31 3-30 9-26 15-23 19-19 23-15 26-9 30-3 31 3 31 9 30 15 26 19 23 23 19 26 14 30 9 31 3 31-3 30-9 26-14 23-19 19-23 14-26 9-30 3-31-3-31-9-30-14-26-19-23-23-19-26-15-30-9-31-3" stroke="#000"/>
<path d="m-2092-1035-11 1-11 3-18 12-12 18-3 11-1 11 1 11 3 11 12 18 18 12 11 3 11 1 11-1 11-3 10-6 8-6 7-9 5-9 4-11 1-11-1-11-4-11-5-9-7-9-8-6-10-6-11-3-11-1" stroke="#000"/>
<path d="m-2010-946-6 1-6 4-4 6-1 7 1 7 4 6 6 4 6 1 7-1 6-4 4-6 1-7-1-7-4-6-6-4-7-1" stroke="#000"/>
<path d="m-2007-1e3 -5 5-2 7v7l3 6 5 5 7 2h7l6-3 5-5 2-7v-7l-3-6-5-5-7-2h-7l-6 3" stroke="#000"/>
<path d="m-2036-1046-1 7 2 7 4 6 6 3 7 1 6-2 6-4 3-7 1-7-2-6-4-6-6-3-7-1-6 2-6 4-3 6" stroke="#000"/>
<path d="m-2087-1065 3 6 6 4 6 2 7-1 7-3 4-6 2-6-1-7-3-6-6-4-7-2-7 1-6 3-4 6-2 6 1 7" stroke="#000"/>
<path d="m-2139-1051 6 3h6l7-2 5-5 3-6v-7l-2-7-5-5-6-3h-7l-6 2-5 5-3 6v7l2 7 5 5" stroke="#000"/>
<path d="m-2174-1009 7-1 6-4 4-6 1-7-1-6-4-6-6-4-7-1-7 1-5 4-4 6-1 6 1 7 4 6 5 4 7 1" stroke="#000"/>
<path d="m-2177-955 5-5 2-7v-6l-3-6-5-5-7-2h-7l-6 3-4 5-2 6v7l3 6 5 5 6 2h7l6-3" stroke="#000"/>
<path d="m-2147-909 1-7-2-6-4-6-7-3-7-1-6 2-6 4-3 6-1 7 2 6 4 6 6 3 7 1 7-2 6-4 3-6" stroke="#000"/>
<path d="m-2097-889-3-7-6-4-6-2-7 1-6 3-4 6-2 6 1 7 3 7 6 4 6 2 7-1 6-3 4-6 2-6-1-7" stroke="#000"/>
<path d="m-2044-903-6-3h-7l-7 2-5 5-3 6v6l2 7 5 5 6 3h7l7-2 5-5 3-6v-7l-2-6-5-5" stroke="#000"/>
<path d="m816-965h-192" stroke="#000"/>
<path d="m191-965h-67" stroke="#000"/>
<path d="m-308-965h-70" stroke="#000"/>
<path d="m-808-965h-69" stroke="#000"/>
<path d="m-1310-965h-68" stroke="#000"/>
<path d="m-1808-965h-69" stroke="#000"/>
<path d="m-2308-965h-90l-41 51" stroke="#000"/>
<path d="m1599-786-8-20-11-18-13-16-16-14-18-11-19-9-21-5-22-2-22 2-21 5-19 9-18 11-15 14-13 16-11 17-8 20" stroke="#000"/>
<path d="m1549-788-5-12-6-11-8-9-10-8-10-7-12-5-13-3-13-1-13 1-13 3-11 5-11 7-9 8-8 9-7 11-5 12" stroke="#000"/>
<path d="m-2038-970h-107l-4-7v-7l1-5 1-2h109l3 5v7l-3 9" stroke="#000"/>
<path d="m-2092-998-6 1-6 4-4 6-1 6 1 7 4 5 6 4 6 1 7-1 5-4 4-5 1-7-1-6-4-6-5-4-7-1" stroke="#000"/>
<path d="m-1540-969h-107l-4-6 1-7 1-5 1-2h108l4 4-1 7-3 9" stroke="#000"/>
<path d="m-1593-996-7 1-5 4-4 6-1 6 1 6 4 6 5 4 7 1 6-1 6-4 4-6 1-6-1-6-4-6-6-4-6-1" stroke="#000"/>
<path d="m-1040-969h-106l-4-6v-7l1-5 1-2h108l4 4-1 7-3 9" stroke="#000"/>
<path d="m-1093-996-7 1-5 4-4 6-1 6 1 6 4 6 5 4 7 1 6-1 6-4 4-6 1-6-1-6-4-6-6-4-6-1" stroke="#000"/>
<path d="m-540-970h-106l-4-7v-7l1-5 1-2h108l4 5-1 7-3 9" stroke="#000"/>
<path d="m-593-998-6 1-6 4-4 6-1 6 1 7 4 5 6 4 6 1 6-1 6-4 4-5 1-7-1-6-4-6-6-4-6-1" stroke="#000"/>
<path d="m-40-969h-106l-4-6v-7l1-5 1-2h108l4 4-1 7-3 9" stroke="#000"/>
<path d="m-93-996-6 1-6 4-4 6-1 6 1 6 4 6 6 4 6 1 7-1 5-4 4-6 1-6-1-6-4-6-5-4-7-1" stroke="#000"/>
<path d="m461-967h-107l-4-7v-7l1-5 1-2h109l3 5v7l-3 9" stroke="#000"/>
<path d="m407-994-6 1-6 4-4 5-1 7 1 6 4 6 6 4 6 1 7-1 5-4 4-6 1-6-1-7-4-5-5-4-7-1" stroke="#000"/>
<path d="m1088-969h-107l-4-6 1-7 1-5 1-2h108l4 4-1 7-3 9" stroke="#000"/>
<path d="m1035-996-7 1-5 4-4 6-1 6 1 6 4 6 5 4 7 1 6-1 6-4 4-6 1-6-1-6-4-6-6-4-6-1" stroke="#000"/>
<path d="m-2319-762-10-23-11-22-13-21-15-19-16-19-17-18-18-16-19-14-21-14-22-12-22-10-24-8-24-7-25-5-25-3-26-1-34 2-32 5-32 8-30 11-29 14-27 16-25 19-24 21-21 24-19 25-16 27-14 29-11 30-8 32-5 32-2 34 1 23 2 23 4 22 5 21" stroke="#000"/>
<path d="m-2779-874 7-3h8l8 3 6 5 3 7v8l-3 7-5 6-1 1-41 30-1 1-7 3h-8l-7-3-6-5-4-7v-8l3-7 5-6v-1l42-30 1-1" stroke="#000"/>
<path d="m-2885-739 4-7 6-5 7-2 8 1 7 4 5 6 2 8-1 8v1l-16 49-4 7-6 5-8 2-8-1-7-4-4-6-3-7 1-8v-1l16-49 1-1" stroke="#000"/>
<path d="m-2893-575 1-6 3-5 4-4 6-3 6-1 6 1 6 3 4 5" stroke="#000"/>
<path d="m-2405-735-7-20-1-8 2-8 5-6 7-4 8-1 8 2 6 5 4 7v1l7 18" stroke="#000"/>
<path d="m-2452-860 5 6 3 7v8l-3 7-6 5-8 3h-8l-7-3-1-1-42-30v-1l-5-6-3-7v-8l3-7 6-5 8-3h8l7 3h1l41 31 1 1" stroke="#000"/>
<path d="m-2552-687-4-7-4-6-5-5-6-5" stroke="#000"/>
<path d="m-2454-718-6-13-6-12-8-12-8-11-9-10-10-10-10-9-11-8-24-14-13-6-13-4-14-4-14-3-14-1-15-1-19 1-19 3-18 4-17 7-17 8-15 9-15 11-13 12-12 13-11 15-9 15-8 17-7 17-4 18-3 19-1 19v12l1 12 2 12 2 11" stroke="#000"/>
<path d="m-2464-794-8 2-7 4-4 6-2 8 2 8 4 7 7 4 8 2 8-2 7-4 4-7 2-8-2-8-4-6-7-4-8-2" stroke="#000"/>
<path d="m-2726-851-3 8 1 8 3 7 6 6 8 2h8l7-4 6-6 2-8v-7l-4-7-6-6-8-3-8 1-7 3-5 6" stroke="#000"/>
<path d="m-2856-626 6 6 7 4h7l8-3 6-5 4-7v-8l-2-8-6-6-7-3-8-1-7 3-6 5-4 7-1 8 3 8" stroke="#000"/>
<path d="m-2613-920 8 2 6 4 4 6 2 8-2 8-4 7-6 4-8 2h-1-52l-8-2-7-4-4-7-2-8 2-8 4-6 7-4 8-2v-1h52l1 1" stroke="#000"/>
<path d="m-2506-701-9-17-11-15-13-13-15-11-17-9-17-7-19-5-20-1-26 3-25 7-22 13-19 16-17 19-12 23-7 24-3 27v7l1 8 2 14" stroke="#000"/>
<path d="m-2571-710-9-7-9-6-11-4-11-3-11-2h-12l-11 2-12 3-14 7-12 9-10 10-9 12-6 13-4 14-1 15 1 15" stroke="#000"/>
<path d="m-2552-687-4-6-10-12-5-5" stroke="#000"/>
<path d="m2195-404v6l-3 5-5 6-6 5-8 5-20 8-12 2-12 1h-11l-10-2-9-2-8-3-6-4-4-5-2-6" stroke="#000"/>
<path d="m-404 293 10 4 4 10-4 10-10 4z" fill="#000" fill-rule="nonzero"/>
<path d="m-1971 307v-14h1567v28h-1567v-14z" fill="#000" fill-rule="nonzero"/>
<path d="m-1971 321-10-4-3-10 3-10 10-4z" fill="#000" fill-rule="nonzero"/>
<path d="m-157-71 10 4 4 8-3 9-9 5z" fill="#000" fill-rule="nonzero"/>
<path d="m-1985 80-1-13 1829-138 2 26-1829 138-1-13z" fill="#000" fill-rule="nonzero"/>
<path d="m-1984 93-10-3-4-9 3-9 9-5z" fill="#000" fill-rule="nonzero"/>
<path d="m-486 331-4 10-10 4-10-4-4-10z" fill="#000" fill-rule="nonzero"/>
<path d="m-487-31 1 1v361h-28v-361l1 1-1-1 4-10 10-3 10 3 4 10z" fill="#000" fill-rule="nonzero"/>
<path d="m-469-65v1h-4l-2 1-3 4-4 4-2 5-3 8v11l-26 2v-15l3-14 6-11 6-8 7-6 8-5 6-3z" fill="#000" fill-rule="nonzero"/>
<path d="m-477-91 11 1 6 8-1 10-8 7z" fill="#000" fill-rule="nonzero"/>
<path d="m-486 331-4 10-10 4-10-4-4-10z" fill="#000" fill-rule="nonzero"/>
<path d="m-487-31 1 1v361h-28v-361l1 1-1-1 4-10 10-3 10 3 4 10z" fill="#000" fill-rule="nonzero"/>
<path d="m-469-65v1h-4l-2 1-3 4-4 4-2 5-3 8v11l-26 2v-15l3-14 6-11 6-8 7-6 8-5 6-3z" fill="#000" fill-rule="nonzero"/>
<path d="m-477-91 11 1 6 8-1 10-8 7z" fill="#000" fill-rule="nonzero"/>
<path d="m-1136 344-4 10-10 4-10-4-4-10z" fill="#000" fill-rule="nonzero"/>
<path d="m-1137 34 1 1v309h-28v-309l1 1-1-1 4-10 10-3 10 3 4 10z" fill="#000" fill-rule="nonzero"/>
<path d="m-1118 0v1h-4l-2 1-3 4-8 10-2 7v11l-26 2v-15l4-15 6-11 6-7 7-6 8-5 6-3z" fill="#000" fill-rule="nonzero"/>
<path d="m-1126-26 11 1 6 8-1 10-8 7z" fill="#000" fill-rule="nonzero"/>
<path d="m-1511 341-4 10-10 4-10-4-4-10z" fill="#000" fill-rule="nonzero"/>
<path d="m-1512 48 1 1v292h-28v-292l1 1-1-1 4-10 10-3 10 3 4 10z" fill="#000" fill-rule="nonzero"/>
<path d="m-1493 14v1h-4l-2 1-3 4-8 10-2 7v11l-26 2v-15l4-15 6-11 6-7 7-6 8-5 6-3z" fill="#000" fill-rule="nonzero"/>
<path d="m-1501-12 11 1 6 8-1 10-8 7z" fill="#000" fill-rule="nonzero"/>
<path d="m-1892 331-4 10-10 4-10-4-4-10z" fill="#000" fill-rule="nonzero"/>
<path d="m-1893 62 1 1v268h-28v-268l1 1-1-1 4-10 10-3 10 3 4 10z" fill="#000" fill-rule="nonzero"/>
<path d="m-1878 27h3v1h-4l-2 1-3 3-4 6-2 5-3 8v11l-26 2v-15l3-14 6-11 6-8 7-7 8-5 6-3h3-3l11 1 6 8-1 10-8 7z" fill="#000" fill-rule="nonzero"/>
<path d="m-924-86h-1l-953 113-2-26 953-113h-1z" fill="#000" fill-rule="nonzero"/>
<path d="m40-109h-12-16-18-22-24-27-29-31l-33 1h-35-36-37l-38 1h-39-39l-40 1-39 1h-40l-39 1-76 2-37 1-35 1-34 1h-32l-30 2-28 1-25 2-23 2-20 2-17 2-13 2-4-26 15-2 17-2 20-2 23-2 27-2 28-1 30-2 32-2 34-1 35-1 37-1 76-2 39-1h40l39-1 40-1h39 39l38-1h37 36 35l33-1h31 29 27 24 22 18 16 12z" fill="#000" fill-rule="nonzero"/>
<path d="m40-137 10 4 4 10-4 10-10 4z" fill="#000" fill-rule="nonzero"/>
<path d="m-404 300 5 2 2 5-2 5-5 2z" fill="#000" fill-rule="nonzero"/>
<path d="m-1971 307v-7h1567v14h-1567v-7z" fill="#000" fill-rule="nonzero"/>
<path d="m-1971 314-5-2-2-5 2-5 5-2z" fill="#000" fill-rule="nonzero"/>
<path d="m-156-64 5 2 1 4-1 4-5 2z" fill="#000" fill-rule="nonzero"/>
<path d="m-1985 80v-6l1829-138v12l-1829 138v-6z" fill="#000" fill-rule="nonzero"/>
<path d="m-1985 86-4-2-2-4 2-4 4-2z" fill="#000" fill-rule="nonzero"/>
<path d="m-493 331-2 5-5 2-5-2-2-5z" fill="#000" fill-rule="nonzero"/>
<path d="m-494-30h1v361h-14v-361h1-1l2-5 5-2 5 2 2 5z" fill="#000" fill-rule="nonzero"/>
<path d="m-471-72-1 1-4 1-3 2-9 9-3 7-3 9v13h-12v-13l3-13 5-9 5-7 6-6 7-4 4-1 1-1z" fill="#000" fill-rule="nonzero"/>
<path d="m-475-84 5 1 3 4v4l-4 3z" fill="#000" fill-rule="nonzero"/>
<path d="m-493 331-2 5-5 2-5-2-2-5z" fill="#000" fill-rule="nonzero"/>
<path d="m-494-30h1v361h-14v-361h1-1l2-5 5-2 5 2 2 5z" fill="#000" fill-rule="nonzero"/>
<path d="m-471-72-1 1-4 1-3 2-9 9-3 7-3 9v13h-12v-13l3-13 5-9 5-7 6-6 7-4 4-1 1-1z" fill="#000" fill-rule="nonzero"/>
<path d="m-475-84 5 1 3 4v4l-4 3z" fill="#000" fill-rule="nonzero"/>
<path d="m-1143 344-2 5-5 2-5-2-2-5z" fill="#000" fill-rule="nonzero"/>
<path d="m-1144 35h1v309h-14v-309h1-1l2-5 5-2 5 2 2 5z" fill="#000" fill-rule="nonzero"/>
<path d="m-1120-7-1 1-4 1-3 2-4 4-5 6-4 6-3 9v13h-12v-13l3-13 6-10 5-6 6-6 7-4 4-1 1-1z" fill="#000" fill-rule="nonzero"/>
<path d="m-1124-19 5 1 3 4v4l-4 3z" fill="#000" fill-rule="nonzero"/>
<path d="m-1518 341-2 5-5 2-5-2-2-5z" fill="#000" fill-rule="nonzero"/>
<path d="m-1519 49h1v292h-14v-292h1-1l2-5 5-2 5 2 2 5z" fill="#000" fill-rule="nonzero"/>
<path d="m-1495 7-1 1-4 1-3 2-4 4-5 6-4 6-3 9v13h-12v-13l3-13 6-10 5-6 6-6 7-4 4-1 1-1z" fill="#000" fill-rule="nonzero"/>
<path d="m-1499-5 5 1 3 4v4l-4 3z" fill="#000" fill-rule="nonzero"/>
<path d="m-1899 331-2 5-5 2-5-2-2-5z" fill="#000" fill-rule="nonzero"/>
<path d="m-1900 63h1v268h-14v-268h1-1l2-5 5-2 5 2 2 5z" fill="#000" fill-rule="nonzero"/>
<path d="m-1879 20h2l-1 1-4 1-3 2-4 4-5 6-3 7-3 9v13h-12v-13l3-13 5-9 5-8 6-6 7-4 4-1 1-1h2-2l5 1 3 4v4l-4 3z" fill="#000" fill-rule="nonzero"/>
<path d="m-925-93h-1l-953 113v-12l953-113h-1z" fill="#000" fill-rule="nonzero"/>
<path d="m40-116h-12-16-18-22-24-27-29-31l-33 1h-35-36-37l-38 1h-39-39l-40 1-39 1h-40l-39 1-76 2-37 1-35 1-34 1h-32l-30 2-28 1-26 2-23 2-20 2-17 2-13 2-2-12 15-2 17-2 20-2 23-2 26-2 28-1 30-2 32-2 34-1 35-1 37-1 76-2 39-1h40l39-1 40-1h39 39l38-1h37 36 35l33-1h31 29 27 24 22 18 16 12z" fill="#000" fill-rule="nonzero"/>
<path d="m40-130 5 2 2 5-2 5-5 2z" fill="#000" fill-rule="nonzero"/>
<path d="m-1654-37-6 2-6 5-4 7-1 10 1 9 4 8 6 5 6 2 6-2 6-5 4-8 1-9-1-10-4-7-6-5-6-2" stroke="#000"/>
<path d="m-1276-82-6 2-6 5-4 8-1 9 1 10 4 7 6 5 6 2 6-2 6-5 4-7 1-10-1-9-4-8-6-5-6-2" stroke="#000"/>
<path d="m-898-127-6 2-6 5-4 8-1 9 1 10 4 8 6 5 6 2 7-2 5-5 4-8 1-10-1-9-4-8-5-5-7-2" stroke="#000"/>
<path d="m-520-144-6 2-6 5-4 8-1 9 1 10 4 8 6 5 6 2 7-2 5-5 4-8 1-10-1-9-4-8-5-5-7-2" stroke="#000"/>
<path d="m-138-147-6 2-6 5-4 7-1 10 1 9 4 8 6 5 6 2 6-2 6-5 4-8 1-9-1-10-4-7-6-5-6-2" stroke="#000"/>
<path d="m76-152 12 2 10 6 4 4 3 4 1 6 1 5-1 5-1 6-3 4-4 4-10 6-12 2-7-1-6-1-10-6-4-4-3-4-1-6-1-5 1-5 1-6 3-4 4-4 10-6 6-1 7-1" stroke="#000"/>
<path d="m76-119-3 3-2 7-2 11-1 13 1 13 2 11 2 7 3 3 3-3 2-7 1-11 1-13-1-13-1-11-2-7-3-3" stroke="#000"/>
<path d="m15-137v28h25v-28h-25" stroke="#000"/>
<path d="m-1999 461h-69" stroke="#000"/>
<path d="m-2013 582h-38" stroke="#000"/>
<path d="m-786 496-25 97 87 23 26-98-88-22" stroke="#000"/>
<path d="m-789 613 3-11 52 14-3 10-52-13" stroke="#000"/>
<path d="m-621 489-76-24-82 27 74 27 84-30" stroke="#000"/>
<path d="m-655 599 31-107-72 24-31 107 72-24" stroke="#000"/>
<path d="m-617 575 372 96-11 41-410-107-11-12 1-15 7-12 4-5" stroke="#000"/>
<path d="m-280 709-14 7-73-22 1-9" stroke="#000"/>
<path d="m-297 351-6-22-1-20 3-17 10-13 7-7v-3l-1-4 5-7 5-5 5-4 15-9 12-4 7-2 12-3 6-5 3-8 4-11 4-7 8-6 11-6 12-5 13-4 12-1 11 2 8 6" stroke="#000"/>
<path d="m-280 338 10-5 3-2-2-3-8-11-6-16 2-13 5-7 6 2" stroke="#000"/>
<path d="m-222 355-3-10v-10l4-9 6-6" stroke="#000"/>
<path d="m-242 348-7-13v-11l3-9 7-5" stroke="#000"/>
<path d="m-218 276-7-13v-12l3-8 7-5" stroke="#000"/>
<path d="m-189 297v-15l5-10 8-6h9" stroke="#000"/>
<path d="m-201 279 2-13 5-11 6-9 7-6 7-5 7-3 6-1h5l4-4-2-10-4-12-2-5-14 10" stroke="#000"/>
<path d="m-356 217 10-7 7 1 5 4 2 2 6-21 10-14 8-7 4-2 4-4 8-3 10-2 11-1 11 2 12 5 10 8 9 12" stroke="#000"/>
<path d="m-287 252-7-2-6-2-8-4-6-6-4-3-3-4 17 17" stroke="#000"/>
<path d="m95 608 326 18 2-31" stroke="#000"/>
<path d="m95 608-7 18-224-12" stroke="#000"/>
<path d="m-133 500 139 5 47 65" stroke="#000"/>
<path d="m50 568-15-8-14-4-13-2-11 2-10 2-7 3-6 3h-72l-38-24" stroke="#000"/>
<path d="m-222 477-7 121 96 6 7-122-96-5" stroke="#000"/>
<path d="m-232 633 2-29 91 5-2 29-91-5" stroke="#000"/>
<path d="m-229 482 2-29 91 5-1 29-92-5" stroke="#000"/>
<path d="m423 626 6 4 7 2 8 2 8 1h9l8-1 14-4 10-8 2-4 1-5v-5l-3-4-3-5-5-4-6-3-7-3-8-2-9-1h-5l-5 1h-5l-5 1-4 1-4 2-4 1-3 2-360-29-3 10" stroke="#000"/>
<path d="m-353 481h-12l-12 3-11 5-9 7-8 8-6 9-4 11-2 11 1 12 2 11 6 10 7 9 8 7 10 6 12 4 12 2h12l12-3 11-5 10-6 8-8 6-10 4-10 2-12-1-12-3-11-5-10-7-9-9-7-10-6-12-4-12-2" stroke="#000"/>
<path d="m-236 592-78-6" stroke="#000"/>
<path d="m-232 568-68-6" stroke="#000"/>
<path d="m-232 523-68-6" stroke="#000"/>
<path d="m-232 499-96-10" stroke="#000"/>
<path d="m-346 482-123-89-1-48" stroke="#000"/>
<path d="m-404 506-22-27-22-17-21-8-17-1-12 6-4 12 7 16 19 19 63 3" stroke="#000"/>
<path d="m-418 537-37-2" stroke="#000"/>
<path d="m-806 571-9-1-6-1h-2l-1-1h-1-1-4-7l-10-1-10-4-12-6-11-8-11-10-10-10-9-11-6-12-12-7-10-8-7-8-4-10-3-10v-10l3-12 5-11" stroke="#000"/>
<path d="m-772 489-15-4-13-6-10-7-8-8-5-8-2-8 1-8 4-6" stroke="#000"/>
<path d="m-816 478-6-5-6-3-7-1h-7-6l-5 2-4 1h-1" stroke="#000"/>
<path d="m-813 489-9-4-9-1-7 1h-3" stroke="#000"/>
<path d="m-823 530-14-3-9-7-4-8-1-3" stroke="#000"/>
<path d="m-383 606 10-11" stroke="#000"/>
<path d="m-930 399 3-8-3-7-8-6-13-5-15-3-19-3-20-2-21-1-22-1h-21-21l-18 1h-15-12l-8 1h-3" stroke="#000"/>
<path d="m-497 389 3-11-3-9-10-8-15-6-20-4-23-3-27-2-30-1h-31-33l-32 1-33 1-31 1-29 1-27 1h-23l14 24h264" stroke="#000"/>
<path d="m-548 523-10-44-1-37 7-29 11-21 15-12 16-2 14 10 10 22" stroke="#000"/>
<path d="m1885-987h-3l-3 1-2 1-2 3v3l1 2 1 3 3 1h3l3-1 2-1 2-6-1-2-1-3-3-1" stroke="#000"/>
<path d="m2086-631 2-3 2-4 1-3 1-4v-1l4-71 1-20-2-10-5-9-8-7-10-2-10 1-8 5-6 8-3 10v1l-3 46" stroke="#000"/>
<path d="m2075-665v-3l-1-2-2-1-3-1h-3l-2 1-2 2-1 3 2 6 2 1 3 1 3-1 2-1 1-2 1-3" stroke="#000"/>
<path d="m2079-722-1 3-1 2-6 2-3-1-2-2-1-2-1-3 1-3 2-2 2-1 3-1 3 1 2 2 1 2 1 3" stroke="#000"/>
<path d="m-3206-580v319h49v-319h-49" stroke="#000"/>
<path d="m-3164-259-11 2-9 7-7 9-2 11 2 11 7 10 9 6 11 2 11-2 10-6 6-10 2-11-2-11-6-9-10-7-11-2" stroke="#000"/>
<path d="m-3129-518-8 2-6 4-4 6-2 8 2 8 4 7 6 4 8 2 8-2 7-4 4-7 2-8-2-8-4-6-7-4-8-2" stroke="#000"/>
<path d="m-2975-546-182-17" stroke="#000"/>
<path d="m-1861-321 1 21-2 15-5 9-6 4h-8l-6-3-5-6-3-9v-10l-3-8-5-6-7-2h-6l-6 5-4 8-2 13-3 9-5 6-6 3h-7l-7-4-5-9-2-15 1-21" stroke="#000"/>
<path d="m3016 69v-151" stroke="#000"/>
<path d="m2999 52v-134" stroke="#000"/>
<path d="m834-6-10-2-10 3-11 6-11 8-9 9-8 9-5 6-2 2" stroke="#000"/>
<path d="m-321 334-22-7-17-8-12-9-10-9-8-9-7-10-8-9-9-8-3-13v-9l3-8 7-7 9-19 9-16 8-15 7-12 6-10 5-8 3-4 1-2 7-21 7-19 4-14 2-5 3-7-1-8-2-6v-6l4-2 9-2 11-1 12 2 9 3 7 6v9l-7 12-2 11-7 17-8 20-10 22-11 20-8 18-7 12-2 4-5 11-2 11v9 3" stroke="#000"/>
</g>
</svg>
